<?xml version="1.0" standalone="no"?>
<!DOCTYPE svg PUBLIC "-//W3C//DTD SVG 1.1//EN" "http://www.w3.org/Graphics/SVG/1.1/DTD/svg11.dtd" >
<svg>
<metadata>
Created by FontForge 20090622 at Fri Feb 22 20:52:09 2019
 By ffonts
Copyright \(c\)2016, Decalotype designed by Alfredo Marco Pradil \(hello@hanken.co, ammpradil@gmail.com\). Decalotype is a trademark of Alfredo Marco Pradil.
</metadata>
<defs>
<font id="Decalotype-Regular" horiz-adv-x="0" >
  <font-face 
    font-family="Decalotype"
    font-weight="400"
    font-stretch="normal"
    units-per-em="2048"
    panose-1="0 0 5 0 0 0 0 0 0 0"
    ascent="1606"
    descent="-442"
    x-height="1192"
    cap-height="1606"
    bbox="-1308 -541 2283 2144"
    underline-thickness="93"
    underline-position="-8"
    stemh="168"
    stemv="194"
    unicode-range="U+0020-U+FB02"
  />
<missing-glyph horiz-adv-x="1028" 
d="M142 0v1136h745v-1136h-745zM235 116h559v903h-559v-903z" />
    <glyph glyph-name="f_f" unicode="ff" horiz-adv-x="1134" 
d="M1045 1455c-83 0 -132 -70 -132 -178v-85h234v-144h-230v-1048h-194v1048h-352v-1048h-194v1048h-163v144h164v75c0 205 103 339 283 339h140v-151h-102c-83 0 -132 -70 -132 -178v-85h357v75c0 205 103 339 283 339h140v-151h-102z" />
    <glyph glyph-name="f_f_i" unicode="ffi" horiz-adv-x="1646" 
d="M1509 1192v-1192h-196v1048h-381v-1048h-195v1048h-376v-1048h-195v1048h-163v144h164v75c0 205 104 339 283 339h141v-151h-102c-83 0 -132 -70 -132 -178v-85h381v75c0 205 104 339 283 339h141v-151h-102c-83 0 -132 -70 -132 -178v-85h581zM1314 1606h195v-228h-195
v228z" />
    <glyph glyph-name="f_f_l" unicode="ffl" horiz-adv-x="1697" 
d="M768 1267c0 205 103 339 282 339h141v-151h-102c-83 0 -132 -70 -132 -178v-85h234v-144h-230v-1048h-194v1048h-352v-1048h-194v1048h-164v144h165v75c0 205 103 339 282 339h141v-151h-102c-83 0 -132 -70 -132 -178v-85h357v75zM1331 1606h194v-1606h-194v1606z" />
    <glyph glyph-name="fi" unicode="fi" horiz-adv-x="1123" 
d="M946 1192v-1192h-195v1048h-350v-1048h-194v1048h-163v144h164v75c0 205 103 339 283 339h140v-151h-102c-83 0 -132 -70 -132 -178v-85h549zM751 1606h195v-228h-195v228z" />
    <glyph glyph-name="fl" unicode="fl" horiz-adv-x="1142" 
d="M964 1606v-1606h-194v1455h-246c-83 0 -132 -70 -132 -178v-85h234v-144h-230v-1048h-194v1048h-163v144h164v75c0 205 103 339 283 339h478z" />
    <glyph glyph-name=".notdef" horiz-adv-x="1028" 
d="M142 0v1136h745v-1136h-745zM235 116h559v903h-559v-903z" />
    <glyph glyph-name="A" unicode="A" horiz-adv-x="1163" 
d="M924 0l-83 348h-518l-84 -348h-210l419 1606h269l417 -1606h-210zM363 516h438l-197 825l-16 115h-6l-21 -115z" />
    <glyph glyph-name="Aacute" unicode="&#xc1;" horiz-adv-x="1163" 
d="M934 2020l-280 -273h-145l203 273h222zM924 0l-83 348h-518l-84 -348h-210l419 1606h269l417 -1606h-210zM363 516h438l-197 825l-16 115h-6l-21 -115z" />
    <glyph glyph-name="Abreve" unicode="&#x102;" horiz-adv-x="1163" 
d="M580 1738c-165 0 -281 84 -281 282h134c0 -113 68 -158 147 -158s149 45 149 158h135c0 -198 -119 -282 -284 -282zM924 0l-83 348h-518l-84 -348h-210l419 1606h269l417 -1606h-210zM363 516h438l-197 825l-16 115h-6l-21 -115z" />
    <glyph glyph-name="Acircumflex" unicode="&#xc2;" horiz-adv-x="1163" 
d="M581 1912l-153 -170h-153l199 278h215l199 -278h-154zM924 0l-83 348h-518l-84 -348h-210l419 1606h269l417 -1606h-210zM363 516h438l-197 825l-16 115h-6l-21 -115z" />
    <glyph glyph-name="Adieresis" unicode="&#xc4;" horiz-adv-x="1163" 
d="M511 2020v-228h-172v228h172zM826 2020v-228h-170v228h170zM924 0l-83 348h-518l-84 -348h-210l419 1606h269l417 -1606h-210zM363 516h438l-197 825l-16 115h-6l-21 -115z" />
    <glyph glyph-name="Agrave" unicode="&#xc0;" horiz-adv-x="1163" 
d="M660 1744h-156l-268 276h224zM924 0l-83 348h-518l-84 -348h-210l419 1606h269l417 -1606h-210zM363 516h438l-197 825l-16 115h-6l-21 -115z" />
    <glyph glyph-name="Amacron" unicode="&#x100;" horiz-adv-x="1163" 
d="M839 1890v-126h-516v126h516zM924 0l-83 348h-518l-84 -348h-210l419 1606h269l417 -1606h-210zM363 516h438l-197 825l-16 115h-6l-21 -115z" />
    <glyph glyph-name="Aogonek" unicode="&#x104;" horiz-adv-x="1163" 
d="M1171 -314l86 -69c-39 -77 -100 -129 -192 -129c-107 0 -197 88 -197 230c0 111 68 211 143 282h-87l-83 348h-518l-84 -348h-210l419 1606h269l417 -1606c-95 -81 -150 -165 -150 -258c0 -89 39 -131 85 -131c34 0 74 24 102 75zM363 516h438l-197 825l-16 115h-6
l-21 -115z" />
    <glyph glyph-name="Aring" unicode="&#xc5;" horiz-adv-x="1163" 
d="M582 1688c-129 0 -221 97 -221 230c0 131 92 226 221 226c127 0 219 -95 219 -226c0 -133 -92 -230 -219 -230zM582 1794c69 0 116 51 116 122s-47 123 -116 123s-117 -52 -117 -123s48 -122 117 -122zM924 0l-83 348h-518l-84 -348h-210l419 1606h269l417 -1606h-210z
M363 516h438l-197 825l-16 115h-6l-21 -115z" />
    <glyph glyph-name="Atilde" unicode="&#xc3;" horiz-adv-x="1163" 
d="M725 1737c-146 0 -182 162 -274 162c-55 0 -84 -67 -82 -144h-117c0 159 60 266 181 266c151 0 184 -168 280 -168c58 0 82 66 82 167h118c0 -189 -72 -283 -188 -283zM924 0l-83 348h-518l-84 -348h-210l419 1606h269l417 -1606h-210zM363 516h438l-197 825l-16 115h-6
l-21 -115z" />
    <glyph glyph-name="AE" unicode="&#xc6;" horiz-adv-x="1531" 
d="M1456 1427h-576v-534h502v-179h-502v-534h576v-180h-779v349h-346l-87 -349h-216l437 1606h991v-179zM376 531h301v894h-78z" />
    <glyph glyph-name="B" unicode="B" horiz-adv-x="1241" 
d="M178 0v1606h501c265 0 415 -170 415 -429c0 -201 -91 -294 -202 -334v-10c160 -31 265 -169 265 -395c0 -271 -160 -438 -415 -438h-564zM376 897h281c129 0 239 102 239 278c0 178 -84 255 -226 255h-294v-533zM376 178h340c165 0 241 108 241 278
c0 180 -111 284 -241 284h-340v-562z" />
    <glyph glyph-name="C" unicode="C" horiz-adv-x="1241" 
d="M676 -23c-378 0 -584 324 -584 826c0 504 207 828 583 828c244 0 447 -167 516 -435l-172 -65c-46 190 -164 316 -342 316c-245 0 -387 -246 -387 -633c0 -397 146 -653 389 -653c162 0 288 128 340 318l172 -65c-67 -267 -270 -437 -515 -437z" />
    <glyph glyph-name="Cacute" unicode="&#x106;" horiz-adv-x="1241" 
d="M593 1747l203 273h222l-280 -273h-145zM676 -23c-378 0 -584 324 -584 826c0 504 207 828 583 828c244 0 447 -167 516 -435l-172 -65c-46 190 -164 316 -342 316c-245 0 -387 -246 -387 -633c0 -397 146 -653 389 -653c162 0 288 128 340 318l172 -65
c-67 -267 -270 -437 -515 -437z" />
    <glyph glyph-name="Ccaron" unicode="&#x10c;" horiz-adv-x="1241" 
d="M558 1743l-199 277h153l153 -169l153 169h154l-199 -277h-215zM676 -23c-378 0 -584 324 -584 826c0 504 207 828 583 828c244 0 447 -167 516 -435l-172 -65c-46 190 -164 316 -342 316c-245 0 -387 -246 -387 -633c0 -397 146 -653 389 -653c162 0 288 128 340 318
l172 -65c-67 -267 -270 -437 -515 -437z" />
    <glyph glyph-name="Ccedilla" unicode="&#xc7;" horiz-adv-x="1241" 
d="M679 161c162 0 288 128 340 318l172 -65c-62 -248 -241 -412 -462 -434l-50 -98c103 -50 171 -113 171 -217c0 -109 -73 -206 -187 -206c-88 0 -152 58 -183 133l91 62c12 -48 40 -81 86 -81c54 0 76 44 76 86c0 76 -69 123 -187 171l66 150c-337 35 -520 350 -520 823
c0 504 207 828 583 828c244 0 447 -167 516 -435l-172 -65c-46 190 -164 316 -342 316c-245 0 -387 -246 -387 -633c0 -397 146 -653 389 -653z" />
    <glyph glyph-name="Cdotaccent" unicode="&#x10a;" horiz-adv-x="1241" 
d="M568 1792v228h195v-228h-195zM676 -23c-378 0 -584 324 -584 826c0 504 207 828 583 828c244 0 447 -167 516 -435l-172 -65c-46 190 -164 316 -342 316c-245 0 -387 -246 -387 -633c0 -397 146 -653 389 -653c162 0 288 128 340 318l172 -65
c-67 -267 -270 -437 -515 -437z" />
    <glyph glyph-name="D" unicode="D" horiz-adv-x="1281" 
d="M178 0v1606h358c429 0 660 -287 660 -814c0 -508 -238 -792 -663 -792h-355zM377 179h133c325 0 482 204 482 625c0 419 -149 624 -461 624h-154v-1249z" />
    <glyph glyph-name="Eth" unicode="&#xd0;" horiz-adv-x="1281" 
d="M536 1606c429 0 660 -287 660 -814c0 -508 -238 -792 -663 -792h-355v748h-115v110h115v748h358zM510 179c325 0 482 204 482 625c0 419 -149 624 -461 624h-154v-570h283v-110h-283v-569h133z" />
    <glyph glyph-name="Dcaron" unicode="&#x10e;" horiz-adv-x="1281" 
d="M533 1743l-199 277h153l153 -169l153 169h154l-199 -277h-215zM178 0v1606h358c429 0 660 -287 660 -814c0 -508 -238 -792 -663 -792h-355zM377 179h133c325 0 482 204 482 625c0 419 -149 624 -461 624h-154v-1249z" />
    <glyph glyph-name="Dcroat" unicode="&#x110;" horiz-adv-x="1281" 
d="M536 1606c429 0 660 -287 660 -814c0 -508 -238 -792 -663 -792h-355v748h-115v110h115v748h358zM510 179c325 0 482 204 482 625c0 419 -149 624 -461 624h-154v-570h283v-110h-283v-569h133z" />
    <glyph glyph-name="E" unicode="E" horiz-adv-x="1031" 
d="M178 0v1606h779v-179h-576v-534h502v-179h-502v-534h576v-180h-779z" />
    <glyph glyph-name="Eacute" unicode="&#xc9;" horiz-adv-x="1031" 
d="M443 1747l203 273h222l-280 -273h-145zM178 0v1606h779v-179h-576v-534h502v-179h-502v-534h576v-180h-779z" />
    <glyph glyph-name="Ecaron" unicode="&#x11a;" horiz-adv-x="1031" 
d="M408 1743l-199 277h153l153 -169l153 169h154l-199 -277h-215zM178 0v1606h779v-179h-576v-534h502v-179h-502v-534h576v-180h-779z" />
    <glyph glyph-name="Ecircumflex" unicode="&#xca;" horiz-adv-x="1031" 
d="M209 1742l199 278h215l199 -278h-154l-153 170l-153 -170h-153zM178 0v1606h779v-179h-576v-534h502v-179h-502v-534h576v-180h-779z" />
    <glyph glyph-name="Edieresis" unicode="&#xcb;" horiz-adv-x="1031" 
d="M273 1792v228h172v-228h-172zM590 1792v228h170v-228h-170zM178 0v1606h779v-179h-576v-534h502v-179h-502v-534h576v-180h-779z" />
    <glyph glyph-name="Edotaccent" unicode="&#x116;" horiz-adv-x="1031" 
d="M418 1792v228h195v-228h-195zM178 0v1606h779v-179h-576v-534h502v-179h-502v-534h576v-180h-779z" />
    <glyph glyph-name="Egrave" unicode="&#xc8;" horiz-adv-x="1031" 
d="M438 1744l-268 276h224l200 -276h-156zM178 0v1606h779v-179h-576v-534h502v-179h-502v-534h576v-180h-779z" />
    <glyph glyph-name="Emacron" unicode="&#x112;" horiz-adv-x="1031" 
d="M257 1764v126h516v-126h-516zM178 0v1606h779v-179h-576v-534h502v-179h-502v-534h576v-180h-779z" />
    <glyph glyph-name="Eogonek" unicode="&#x118;" horiz-adv-x="1031" 
d="M994 -314l86 -69c-39 -77 -100 -129 -192 -129c-107 0 -197 88 -197 230c0 111 68 211 143 282h-656v1606h779v-179h-576v-534h502v-179h-502v-534h576v-180c-95 -81 -150 -165 -150 -258c0 -89 39 -131 85 -131c34 0 74 24 102 75z" />
    <glyph glyph-name="F" unicode="F" horiz-adv-x="997" 
d="M178 0v1606h784v-179h-581v-534h502v-179h-502v-714h-203z" />
    <glyph glyph-name="G" unicode="G" horiz-adv-x="1361" 
d="M768 663v162h464v-825h-164l-3 271c-44 -151 -184 -294 -395 -294c-423 0 -577 370 -577 832c0 448 163 822 587 822c324 0 486 -167 554 -433l-175 -59c-54 198 -151 309 -373 309c-307 0 -393 -297 -393 -635c0 -347 93 -649 384 -649c163 0 285 104 338 297
c16 60 25 127 27 202h-274z" />
    <glyph glyph-name="Gbreve" unicode="&#x11e;" horiz-adv-x="1361" 
d="M679 1738c-165 0 -281 84 -281 282h134c0 -113 68 -158 147 -158s149 45 149 158h135c0 -198 -119 -282 -284 -282zM768 663v162h464v-825h-164l-3 271c-44 -151 -184 -294 -395 -294c-423 0 -577 370 -577 832c0 448 163 822 587 822c324 0 486 -167 554 -433l-175 -59
c-54 198 -151 309 -373 309c-307 0 -393 -297 -393 -635c0 -347 93 -649 384 -649c163 0 285 104 338 297c16 60 25 127 27 202h-274z" />
    <glyph glyph-name="uni0122" unicode="&#x122;" horiz-adv-x="1361" 
d="M768 663v162h464v-825h-164l-3 271c-44 -151 -184 -294 -395 -294c-423 0 -577 370 -577 832c0 448 163 822 587 822c324 0 486 -167 554 -433l-175 -59c-54 198 -151 309 -373 309c-307 0 -393 -297 -393 -635c0 -347 93 -649 384 -649c163 0 285 104 338 297
c16 60 25 127 27 202h-274zM457 -504l116 344h215l-219 -344h-112z" />
    <glyph glyph-name="Gdotaccent" unicode="&#x120;" horiz-adv-x="1361" 
d="M778 2020v-228h-195v228h195zM768 663v162h464v-825h-164l-3 271c-44 -151 -184 -294 -395 -294c-423 0 -577 370 -577 832c0 448 163 822 587 822c324 0 486 -167 554 -433l-175 -59c-54 198 -151 309 -373 309c-307 0 -393 -297 -393 -635c0 -347 93 -649 384 -649
c163 0 285 104 338 297c16 60 25 127 27 202h-274z" />
    <glyph glyph-name="H" unicode="H" horiz-adv-x="1299" 
d="M178 0v1606h201v-715h542v715h200v-1606h-200v715h-542v-715h-201z" />
    <glyph glyph-name="Hbar" unicode="&#x126;" horiz-adv-x="1299" 
d="M1239 1253v-91h-118v-1162h-200v715h-542v-715h-201v1162h-120v91h120v353h201v-353h542v353h200v-353h118zM921 891v271h-542v-271h542z" />
    <glyph glyph-name="I" unicode="I" horiz-adv-x="556" 
d="M178 0v1606h200v-1606h-200z" />
    <glyph glyph-name="Iacute" unicode="&#xcd;" horiz-adv-x="556" 
d="M205 1747l203 273h222l-280 -273h-145zM178 0v1606h200v-1606h-200z" />
    <glyph glyph-name="Icircumflex" unicode="&#xce;" horiz-adv-x="556" 
d="M-29 1742l199 278h215l199 -278h-154l-153 170l-153 -170h-153zM178 0v1606h200v-1606h-200z" />
    <glyph glyph-name="Idieresis" unicode="&#xcf;" horiz-adv-x="556" 
d="M35 1792v228h172v-228h-172zM352 1792v228h170v-228h-170zM178 0v1606h200v-1606h-200z" />
    <glyph glyph-name="Idotaccent" unicode="&#x130;" horiz-adv-x="556" 
d="M180 1792v228h195v-228h-195zM178 0v1606h200v-1606h-200z" />
    <glyph glyph-name="Igrave" unicode="&#xcc;" horiz-adv-x="556" 
d="M200 1744l-268 276h224l200 -276h-156zM178 0v1606h200v-1606h-200z" />
    <glyph glyph-name="Imacron" unicode="&#x12a;" horiz-adv-x="556" 
d="M19 1764v126h516v-126h-516zM178 0v1606h200v-1606h-200z" />
    <glyph glyph-name="Iogonek" unicode="&#x12e;" horiz-adv-x="556" 
d="M415 -314l86 -69c-39 -77 -100 -129 -192 -129c-107 0 -197 88 -197 230c0 111 68 211 143 282h-77v1606h200v-1606c-95 -81 -150 -165 -150 -258c0 -89 39 -131 85 -131c34 0 74 24 102 75z" />
    <glyph glyph-name="J" unicode="J" horiz-adv-x="726" 
d="M174 -23c-40 0 -112 7 -159 23v177c57 -22 94 -28 133 -28c162 0 216 104 216 314v1143h203v-1141c0 -341 -124 -488 -393 -488z" />
    <glyph glyph-name="K" unicode="K" horiz-adv-x="1212" 
d="M956 0l-391 859l-186 -194v-665h-201v1606h201v-715l516 715h242l-446 -593l501 -1013h-236z" />
    <glyph glyph-name="uni0136" unicode="&#x136;" horiz-adv-x="1212" 
d="M691 1013l501 -1013h-236l-391 859l-186 -194v-665h-201v1606h201v-715l516 715h242zM383 -504l116 344h215l-219 -344h-112z" />
    <glyph glyph-name="L" unicode="L" horiz-adv-x="922" 
d="M178 0v1606h203v-1426h526v-180h-729z" />
    <glyph glyph-name="Lacute" unicode="&#x139;" horiz-adv-x="922" 
d="M207 1747l203 273h222l-280 -273h-145zM178 0v1606h203v-1426h526v-180h-729z" />
    <glyph glyph-name="Lcaron" unicode="&#x13d;" horiz-adv-x="922" 
d="M178 0v1606h203v-1426h526v-180h-729zM658 985l98 362h-95v259h250v-259l-143 -362h-110z" />
    <glyph glyph-name="uni013B" unicode="&#x13b;" horiz-adv-x="922" 
d="M178 0v1606h203v-1426h526v-180h-729zM318 -504l116 344h215l-219 -344h-112z" />
    <glyph glyph-name="Lslash" unicode="&#x141;" horiz-adv-x="922" 
d="M381 180h526v-180h-729v526l-150 -132v185l150 133v894h203v-713l358 318v-193l-358 -314v-524z" />
    <glyph glyph-name="M" unicode="M" horiz-adv-x="1655" 
d="M178 0v1606h338l311 -1399l312 1399h338v-1606h-201l-1 1079l9 359h-9l-342 -1438h-210l-343 1438h-9l9 -354l-1 -1084h-201z" />
    <glyph glyph-name="N" unicode="N" horiz-adv-x="1408" 
d="M178 0v1606h298l559 -1407h4l-8 329v1078h199v-1606h-301l-558 1417h-3l8 -290v-1127h-198z" />
    <glyph glyph-name="Nacute" unicode="&#x143;" horiz-adv-x="1408" 
d="M631 1747l203 273h222l-280 -273h-145zM178 0v1606h298l559 -1407h4l-8 329v1078h199v-1606h-301l-558 1417h-3l8 -290v-1127h-198z" />
    <glyph glyph-name="Ncaron" unicode="&#x147;" horiz-adv-x="1408" 
d="M596 1743l-199 277h153l153 -169l153 169h154l-199 -277h-215zM178 0v1606h298l559 -1407h4l-8 329v1078h199v-1606h-301l-558 1417h-3l8 -290v-1127h-198z" />
    <glyph glyph-name="uni0145" unicode="&#x145;" horiz-adv-x="1408" 
d="M178 0v1606h298l559 -1407h4l-8 329v1078h199v-1606h-301l-558 1417h-3l8 -290v-1127h-198zM480 -504l116 344h215l-219 -344h-112z" />
    <glyph glyph-name="Eng" unicode="&#x14a;" horiz-adv-x="1409" 
d="M1031 1606h199v-1606c0 -204 -26 -388 -271 -388h-114v124c181 0 209 45 209 264h-125l-558 1417h-3l8 -290v-1127h-198v1606h298l559 -1407h4l-8 329v1078z" />
    <glyph glyph-name="Ntilde" unicode="&#xd1;" horiz-adv-x="1408" 
d="M847 1737c-146 0 -182 162 -274 162c-55 0 -84 -67 -82 -144h-117c0 159 60 266 181 266c151 0 184 -168 280 -168c58 0 82 66 82 167h118c0 -189 -72 -283 -188 -283zM178 0v1606h298l559 -1407h4l-8 329v1078h199v-1606h-301l-558 1417h-3l8 -290v-1127h-198z" />
    <glyph glyph-name="O" unicode="O" horiz-adv-x="1341" 
d="M669 -23c-361 0 -578 306 -578 826c0 521 217 826 578 826s581 -305 581 -826c0 -520 -220 -826 -581 -826zM671 161c234 0 379 234 379 642s-145 644 -379 644s-380 -236 -380 -644s146 -642 380 -642z" />
    <glyph glyph-name="Oacute" unicode="&#xd3;" horiz-adv-x="1341" 
d="M598 1747l203 273h222l-280 -273h-145zM669 -23c-361 0 -578 306 -578 826c0 521 217 826 578 826s581 -305 581 -826c0 -520 -220 -826 -581 -826zM671 161c234 0 379 234 379 642s-145 644 -379 644s-380 -236 -380 -644s146 -642 380 -642z" />
    <glyph glyph-name="Ocircumflex" unicode="&#xd4;" horiz-adv-x="1341" 
d="M364 1742l199 278h215l199 -278h-154l-153 170l-153 -170h-153zM669 -23c-361 0 -578 306 -578 826c0 521 217 826 578 826s581 -305 581 -826c0 -520 -220 -826 -581 -826zM671 161c234 0 379 234 379 642s-145 644 -379 644s-380 -236 -380 -644s146 -642 380 -642z
" />
    <glyph glyph-name="Odieresis" unicode="&#xd6;" horiz-adv-x="1341" 
d="M428 1792v228h172v-228h-172zM745 1792v228h170v-228h-170zM669 -23c-361 0 -578 306 -578 826c0 521 217 826 578 826s581 -305 581 -826c0 -520 -220 -826 -581 -826zM671 161c234 0 379 234 379 642s-145 644 -379 644s-380 -236 -380 -644s146 -642 380 -642z" />
    <glyph glyph-name="Ograve" unicode="&#xd2;" horiz-adv-x="1341" 
d="M593 1744l-268 276h224l200 -276h-156zM669 -23c-361 0 -578 306 -578 826c0 521 217 826 578 826s581 -305 581 -826c0 -520 -220 -826 -581 -826zM671 161c234 0 379 234 379 642s-145 644 -379 644s-380 -236 -380 -644s146 -642 380 -642z" />
    <glyph glyph-name="Ohungarumlaut" unicode="&#x150;" horiz-adv-x="1341" 
d="M430 1744l190 276h196l-230 -276h-156zM754 1744l189 276h215l-251 -276h-153zM669 -23c-361 0 -578 306 -578 826c0 521 217 826 578 826s581 -305 581 -826c0 -520 -220 -826 -581 -826zM671 161c234 0 379 234 379 642s-145 644 -379 644s-380 -236 -380 -644
s146 -642 380 -642z" />
    <glyph glyph-name="Omacron" unicode="&#x14c;" horiz-adv-x="1341" 
d="M412 1764v126h516v-126h-516zM669 -23c-361 0 -578 306 -578 826c0 521 217 826 578 826s581 -305 581 -826c0 -520 -220 -826 -581 -826zM671 161c234 0 379 234 379 642s-145 644 -379 644s-380 -236 -380 -644s146 -642 380 -642z" />
    <glyph glyph-name="Oslash" unicode="&#xd8;" horiz-adv-x="1341" 
d="M1272 1450l-116 -145c61 -131 94 -301 94 -502c0 -520 -220 -826 -581 -826c-175 0 -316 72 -415 205l-85 -106l-99 82l114 142c-60 132 -93 302 -93 503c0 521 217 826 578 826c176 0 318 -72 418 -206l85 106zM291 803c0 -124 13 -232 39 -322l627 781
c-65 120 -163 185 -286 185c-234 0 -380 -236 -380 -644zM1050 803c0 124 -13 232 -39 322l-627 -781c66 -119 165 -183 287 -183c234 0 379 234 379 642z" />
    <glyph glyph-name="Otilde" unicode="&#xd5;" horiz-adv-x="1341" 
d="M814 1737c-146 0 -182 162 -274 162c-55 0 -84 -67 -82 -144h-117c0 159 60 266 181 266c151 0 184 -168 280 -168c58 0 82 66 82 167h118c0 -189 -72 -283 -188 -283zM669 -23c-361 0 -578 306 -578 826c0 521 217 826 578 826s581 -305 581 -826
c0 -520 -220 -826 -581 -826zM671 161c234 0 379 234 379 642s-145 644 -379 644s-380 -236 -380 -644s146 -642 380 -642z" />
    <glyph glyph-name="OE" unicode="&#x152;" horiz-adv-x="1911" 
d="M1837 1427h-576v-533h502v-180h-502v-534h576v-180h-779v167c-88 -122 -214 -190 -383 -190c-359 0 -586 321 -586 826s227 826 586 826c169 0 295 -68 383 -190v167h779v-179zM685 161c197 0 331 163 373 442v401c-42 280 -176 443 -373 443c-240 0 -388 -243 -388 -644
c0 -400 148 -642 388 -642z" />
    <glyph glyph-name="P" unicode="P" horiz-adv-x="1128" 
d="M178 0v1606h401c313 0 499 -179 499 -499c0 -308 -187 -483 -520 -483h-178v-624h-202zM380 793h176c222 0 325 104 325 311c0 204 -104 328 -310 328h-191v-639z" />
    <glyph glyph-name="Thorn" unicode="&#xde;" horiz-adv-x="1120" 
d="M178 0v1606h195v-232h272c250 0 429 -166 429 -454c0 -286 -178 -443 -429 -443h-272v-477h-195zM373 662h257c163 0 249 88 249 259c0 167 -86 266 -249 266h-257v-525z" />
    <glyph glyph-name="Q" unicode="Q" horiz-adv-x="1347" 
d="M1259 -66l-56 -160l-643 213c-295 57 -469 351 -469 816c0 521 217 826 578 826s581 -305 581 -826c0 -384 -120 -652 -328 -765zM291 803c0 -408 146 -642 380 -642s379 234 379 642s-145 644 -379 644s-380 -236 -380 -644z" />
    <glyph glyph-name="R" unicode="R" horiz-adv-x="1188" 
d="M1137 -2h-225l-326 626h-28h-178v-624h-202v1606h401c313 0 499 -179 499 -499c0 -232 -106 -389 -301 -452zM380 1432v-639h176c222 0 325 104 325 311c0 204 -104 328 -310 328h-191z" />
    <glyph glyph-name="Racute" unicode="&#x154;" horiz-adv-x="1188" 
d="M946 2020l-280 -273h-145l203 273h222zM1137 -2h-225l-326 626h-28h-178v-624h-202v1606h401c313 0 499 -179 499 -499c0 -232 -106 -389 -301 -452zM380 1432v-639h176c222 0 325 104 325 311c0 204 -104 328 -310 328h-191z" />
    <glyph glyph-name="Rcaron" unicode="&#x158;" horiz-adv-x="1188" 
d="M701 1743h-215l-199 277h153l153 -169l153 169h154zM1137 -2h-225l-326 626h-28h-178v-624h-202v1606h401c313 0 499 -179 499 -499c0 -232 -106 -389 -301 -452zM380 1432v-639h176c222 0 325 104 325 311c0 204 -104 328 -310 328h-191z" />
    <glyph glyph-name="uni0156" unicode="&#x156;" horiz-adv-x="1188" 
d="M777 655l360 -657h-225l-326 626h-28h-178v-624h-202v1606h401c313 0 499 -179 499 -499c0 -232 -106 -389 -301 -452zM380 1432v-639h176c222 0 325 104 325 311c0 204 -104 328 -310 328h-191zM370 -504l116 344h215l-219 -344h-112z" />
    <glyph glyph-name="S" unicode="S" horiz-adv-x="1042" 
d="M535 -20c-212 0 -422 112 -483 431l173 60c44 -228 174 -314 316 -314c150 0 225 92 225 258c0 196 -129 278 -281 362c-170 95 -366 187 -366 456c0 234 132 395 403 395c197 0 379 -106 422 -369l-158 -50c-31 164 -111 245 -264 245c-150 0 -212 -105 -212 -217
c0 -158 147 -224 301 -313c166 -95 353 -211 353 -505c0 -258 -155 -439 -429 -439z" />
    <glyph glyph-name="Sacute" unicode="&#x15a;" horiz-adv-x="1042" 
d="M448 1747l203 273h222l-280 -273h-145zM535 -20c-212 0 -422 112 -483 431l173 60c44 -228 174 -314 316 -314c150 0 225 92 225 258c0 196 -129 278 -281 362c-170 95 -366 187 -366 456c0 234 132 395 403 395c197 0 379 -106 422 -369l-158 -50
c-31 164 -111 245 -264 245c-150 0 -212 -105 -212 -217c0 -158 147 -224 301 -313c166 -95 353 -211 353 -505c0 -258 -155 -439 -429 -439z" />
    <glyph glyph-name="Scaron" unicode="&#x160;" horiz-adv-x="1042" 
d="M413 1743l-199 277h153l153 -169l153 169h154l-199 -277h-215zM535 -20c-212 0 -422 112 -483 431l173 60c44 -228 174 -314 316 -314c150 0 225 92 225 258c0 196 -129 278 -281 362c-170 95 -366 187 -366 456c0 234 132 395 403 395c197 0 379 -106 422 -369l-158 -50
c-31 164 -111 245 -264 245c-150 0 -212 -105 -212 -217c0 -158 147 -224 301 -313c166 -95 353 -211 353 -505c0 -258 -155 -439 -429 -439z" />
    <glyph glyph-name="Scedilla" unicode="&#x15e;" horiz-adv-x="1042" 
d="M964 419c0 -242 -136 -416 -379 -437l-51 -100c103 -50 171 -113 171 -217c0 -109 -73 -206 -187 -206c-88 0 -152 58 -183 133l91 62c12 -48 40 -81 86 -81c54 0 76 44 76 86c0 76 -69 123 -187 171l67 154c-188 22 -361 142 -416 427l173 60c44 -228 174 -314 316 -314
c150 0 225 92 225 258c0 196 -129 278 -281 362c-170 95 -366 187 -366 456c0 234 132 395 403 395c197 0 379 -106 422 -369l-158 -50c-31 164 -111 245 -264 245c-150 0 -212 -105 -212 -217c0 -158 147 -224 301 -313c166 -95 353 -211 353 -505z" />
    <glyph glyph-name="uni0218" unicode="&#x218;" horiz-adv-x="1042" 
d="M535 -20c-212 0 -422 112 -483 431l173 60c44 -228 174 -314 316 -314c150 0 225 92 225 258c0 196 -129 278 -281 362c-170 95 -366 187 -366 456c0 234 132 395 403 395c197 0 379 -106 422 -369l-158 -50c-31 164 -111 245 -264 245c-150 0 -212 -105 -212 -217
c0 -158 147 -224 301 -313c166 -95 353 -211 353 -505c0 -258 -155 -439 -429 -439zM297 -504l116 344h215l-219 -344h-112z" />
    <glyph glyph-name="T" unicode="T" horiz-adv-x="967" 
d="M384 0v1429h-368v177h935v-177h-366v-1429h-201z" />
    <glyph glyph-name="Tbar" unicode="&#x166;" horiz-adv-x="967" 
d="M951 1429h-366v-571h196v-110h-196v-748h-201v748h-200v110h200v571h-368v177h935v-177z" />
    <glyph glyph-name="Tcaron" unicode="&#x164;" horiz-adv-x="967" 
d="M375 1743l-199 277h153l153 -169l153 169h154l-199 -277h-215zM384 0v1429h-368v177h935v-177h-366v-1429h-201z" />
    <glyph glyph-name="uni0162" unicode="&#x162;" horiz-adv-x="967" 
d="M585 0h-29l-60 -118c103 -50 171 -113 171 -217c0 -109 -73 -206 -187 -206c-88 0 -152 58 -183 133l91 62c12 -48 40 -81 86 -81c54 0 76 44 76 86c0 76 -69 123 -187 171l74 170h-53v1429h-368v177h935v-177h-366v-1429z" />
    <glyph glyph-name="uni021A" unicode="&#x21a;" horiz-adv-x="967" 
d="M384 0v1429h-368v177h935v-177h-366v-1429h-201zM259 -504l116 344h215l-219 -344h-112z" />
    <glyph glyph-name="U" unicode="U" horiz-adv-x="1263" 
d="M632 -23c-308 0 -477 177 -477 502v1127h202v-1136c0 -211 102 -319 275 -319c172 0 275 108 275 319v1136h202v-1116c0 -332 -170 -513 -477 -513z" />
    <glyph glyph-name="Uacute" unicode="&#xda;" horiz-adv-x="1263" 
d="M559 1747l203 273h222l-280 -273h-145zM632 -23c-308 0 -477 177 -477 502v1127h202v-1136c0 -211 102 -319 275 -319c172 0 275 108 275 319v1136h202v-1116c0 -332 -170 -513 -477 -513z" />
    <glyph glyph-name="Ucircumflex" unicode="&#xdb;" horiz-adv-x="1263" 
d="M325 1742l199 278h215l199 -278h-154l-153 170l-153 -170h-153zM632 -23c-308 0 -477 177 -477 502v1127h202v-1136c0 -211 102 -319 275 -319c172 0 275 108 275 319v1136h202v-1116c0 -332 -170 -513 -477 -513z" />
    <glyph glyph-name="Udieresis" unicode="&#xdc;" horiz-adv-x="1263" 
d="M389 1792v228h172v-228h-172zM706 1792v228h170v-228h-170zM632 -23c-308 0 -477 177 -477 502v1127h202v-1136c0 -211 102 -319 275 -319c172 0 275 108 275 319v1136h202v-1116c0 -332 -170 -513 -477 -513z" />
    <glyph glyph-name="Ugrave" unicode="&#xd9;" horiz-adv-x="1263" 
d="M554 1744l-268 276h224l200 -276h-156zM632 -23c-308 0 -477 177 -477 502v1127h202v-1136c0 -211 102 -319 275 -319c172 0 275 108 275 319v1136h202v-1116c0 -332 -170 -513 -477 -513z" />
    <glyph glyph-name="Uhungarumlaut" unicode="&#x170;" horiz-adv-x="1263" 
d="M391 1744l190 276h196l-230 -276h-156zM715 1744l189 276h215l-251 -276h-153zM632 -23c-308 0 -477 177 -477 502v1127h202v-1136c0 -211 102 -319 275 -319c172 0 275 108 275 319v1136h202v-1116c0 -332 -170 -513 -477 -513z" />
    <glyph glyph-name="Umacron" unicode="&#x16a;" horiz-adv-x="1263" 
d="M373 1764v126h516v-126h-516zM632 -23c-308 0 -477 177 -477 502v1127h202v-1136c0 -211 102 -319 275 -319c172 0 275 108 275 319v1136h202v-1116c0 -332 -170 -513 -477 -513z" />
    <glyph glyph-name="Uogonek" unicode="&#x172;" horiz-adv-x="1263" 
d="M930 60c-75 -72 -118 -147 -118 -229c0 -89 39 -131 85 -131c34 0 74 24 102 75l86 -69c-39 -77 -100 -129 -192 -129c-107 0 -197 88 -197 230c0 65 23 127 58 181c-38 -7 -78 -11 -122 -11c-308 0 -477 177 -477 502v1127h202v-1136c0 -211 102 -319 275 -319
c172 0 275 108 275 319v1136h202v-1116c0 -201 -62 -346 -179 -430z" />
    <glyph glyph-name="Uring" unicode="&#x16e;" horiz-adv-x="1263" 
d="M632 1688c-129 0 -221 97 -221 230c0 131 92 226 221 226c127 0 219 -95 219 -226c0 -133 -92 -230 -219 -230zM632 1794c69 0 116 51 116 122s-47 123 -116 123s-117 -52 -117 -123s48 -122 117 -122zM632 -23c-308 0 -477 177 -477 502v1127h202v-1136
c0 -211 102 -319 275 -319c172 0 275 108 275 319v1136h202v-1116c0 -332 -170 -513 -477 -513z" />
    <glyph glyph-name="V" unicode="V" horiz-adv-x="1153" 
d="M914 1606h208l-406 -1606h-276l-409 1606h210l339 -1447z" />
    <glyph glyph-name="W" unicode="W" horiz-adv-x="1779" 
d="M1521 1606h209l-299 -1606h-275l-266 1396l-267 -1396h-276l-299 1606h210l227 -1386h11l274 1386h240l270 -1386h13z" />
    <glyph glyph-name="Wacute" unicode="&#x1e82;" horiz-adv-x="1779" 
d="M1241 2020l-280 -273h-145l203 273h222zM1521 1606h209l-299 -1606h-275l-266 1396l-267 -1396h-276l-299 1606h210l227 -1386h11l274 1386h240l270 -1386h13z" />
    <glyph glyph-name="Wcircumflex" unicode="&#x174;" horiz-adv-x="1779" 
d="M888 1912l-153 -170h-153l199 278h215l199 -278h-154zM1521 1606h209l-299 -1606h-275l-266 1396l-267 -1396h-276l-299 1606h210l227 -1386h11l274 1386h240l270 -1386h13z" />
    <glyph glyph-name="Wdieresis" unicode="&#x1e84;" horiz-adv-x="1779" 
d="M818 2020v-228h-172v228h172zM1133 2020v-228h-170v228h170zM1521 1606h209l-299 -1606h-275l-266 1396l-267 -1396h-276l-299 1606h210l227 -1386h11l274 1386h240l270 -1386h13z" />
    <glyph glyph-name="Wgrave" unicode="&#x1e80;" horiz-adv-x="1779" 
d="M967 1744h-156l-268 276h224zM1521 1606h209l-299 -1606h-275l-266 1396l-267 -1396h-276l-299 1606h210l227 -1386h11l274 1386h240l270 -1386h13z" />
    <glyph glyph-name="X" unicode="X" horiz-adv-x="1123" 
d="M1087 0h-218l-310 649l-305 -649h-217l405 803l-403 803h217l306 -667l305 667h217l-403 -803z" />
    <glyph glyph-name="Y" unicode="Y" horiz-adv-x="1128" 
d="M464 0v616l-454 990h226l166 -410l163 -408l161 408l165 410h228l-456 -990v-616h-199z" />
    <glyph glyph-name="Yacute" unicode="&#xdd;" horiz-adv-x="1128" 
d="M492 1747l203 273h222l-280 -273h-145zM464 0v616l-454 990h226l166 -410l163 -408l161 408l165 410h228l-456 -990v-616h-199z" />
    <glyph glyph-name="Ycircumflex" unicode="&#x176;" horiz-adv-x="1128" 
d="M258 1742l199 278h215l199 -278h-154l-153 170l-153 -170h-153zM464 0v616l-454 990h226l166 -410l163 -408l161 408l165 410h228l-456 -990v-616h-199z" />
    <glyph glyph-name="Ydieresis" unicode="&#x178;" horiz-adv-x="1128" 
d="M322 1792v228h172v-228h-172zM639 1792v228h170v-228h-170zM464 0v616l-454 990h226l166 -410l163 -408l161 408l165 410h228l-456 -990v-616h-199z" />
    <glyph glyph-name="Ygrave" unicode="&#x1ef2;" horiz-adv-x="1128" 
d="M487 1744l-268 276h224l200 -276h-156zM464 0v616l-454 990h226l166 -410l163 -408l161 408l165 410h228l-456 -990v-616h-199z" />
    <glyph glyph-name="Z" unicode="Z" horiz-adv-x="1097" 
d="M1037 1606v-163l-750 -1267h750v-176h-988v155l750 1275h-709v176h947z" />
    <glyph glyph-name="Zacute" unicode="&#x179;" horiz-adv-x="1097" 
d="M901 2020l-280 -273h-145l203 273h222zM1037 1606v-163l-750 -1267h750v-176h-988v155l750 1275h-709v176h947z" />
    <glyph glyph-name="Zcaron" unicode="&#x17d;" horiz-adv-x="1097" 
d="M656 1743h-215l-199 277h153l153 -169l153 169h154zM1037 1606v-163l-750 -1267h750v-176h-988v155l750 1275h-709v176h947z" />
    <glyph glyph-name="Zdotaccent" unicode="&#x17b;" horiz-adv-x="1097" 
d="M646 2020v-228h-195v228h195zM1037 1606v-163l-750 -1267h750v-176h-988v155l750 1275h-709v176h947z" />
    <glyph glyph-name="a" unicode="a" horiz-adv-x="980" 
d="M467 1215c227 0 392 -121 392 -370v-845h-167l-9 187h-13c-66 -136 -199 -213 -315 -213c-185 0 -309 132 -309 305c0 171 73 278 205 360c107 67 255 115 427 136l1 52c3 162 -68 225 -205 225c-130 0 -208 -66 -263 -180l-146 84c80 177 218 259 402 259zM402 141
c134 2 221 106 275 218v267c-121 -14 -238 -50 -319 -110c-72 -52 -116 -122 -116 -211c0 -104 71 -166 160 -164z" />
    <glyph glyph-name="aacute" unicode="&#xe1;" horiz-adv-x="980" 
d="M842 1606l-280 -273h-145l203 273h222zM467 1215c227 0 392 -121 392 -370v-845h-167l-9 187h-13c-66 -136 -199 -213 -315 -213c-185 0 -309 132 -309 305c0 171 73 278 205 360c107 67 255 115 427 136l1 52c3 162 -68 225 -205 225c-130 0 -208 -66 -263 -180l-146 84
c80 177 218 259 402 259zM402 141c134 2 221 106 275 218v267c-121 -14 -238 -50 -319 -110c-72 -52 -116 -122 -116 -211c0 -104 71 -166 160 -164z" />
    <glyph glyph-name="abreve" unicode="&#x103;" horiz-adv-x="980" 
d="M488 1324c-165 0 -281 84 -281 282h134c0 -113 68 -158 147 -158s149 45 149 158h135c0 -198 -119 -282 -284 -282zM467 1215c227 0 392 -121 392 -370v-845h-167l-9 187h-13c-66 -136 -199 -213 -315 -213c-185 0 -309 132 -309 305c0 171 73 278 205 360
c107 67 255 115 427 136l1 52c3 162 -68 225 -205 225c-130 0 -208 -66 -263 -180l-146 84c80 177 218 259 402 259zM402 141c134 2 221 106 275 218v267c-121 -14 -238 -50 -319 -110c-72 -52 -116 -122 -116 -211c0 -104 71 -166 160 -164z" />
    <glyph glyph-name="acircumflex" unicode="&#xe2;" horiz-adv-x="980" 
d="M489 1498l-153 -170h-153l199 278h215l199 -278h-154zM467 1215c227 0 392 -121 392 -370v-845h-167l-9 187h-13c-66 -136 -199 -213 -315 -213c-185 0 -309 132 -309 305c0 171 73 278 205 360c107 67 255 115 427 136l1 52c3 162 -68 225 -205 225
c-130 0 -208 -66 -263 -180l-146 84c80 177 218 259 402 259zM402 141c134 2 221 106 275 218v267c-121 -14 -238 -50 -319 -110c-72 -52 -116 -122 -116 -211c0 -104 71 -166 160 -164z" />
    <glyph glyph-name="adieresis" unicode="&#xe4;" horiz-adv-x="980" 
d="M419 1606v-228h-172v228h172zM734 1606v-228h-170v228h170zM467 1215c227 0 392 -121 392 -370v-845h-167l-9 187h-13c-66 -136 -199 -213 -315 -213c-185 0 -309 132 -309 305c0 171 73 278 205 360c107 67 255 115 427 136l1 52c3 162 -68 225 -205 225
c-130 0 -208 -66 -263 -180l-146 84c80 177 218 259 402 259zM402 141c134 2 221 106 275 218v267c-121 -14 -238 -50 -319 -110c-72 -52 -116 -122 -116 -211c0 -104 71 -166 160 -164z" />
    <glyph glyph-name="agrave" unicode="&#xe0;" horiz-adv-x="980" 
d="M568 1330h-156l-268 276h224zM467 1215c227 0 392 -121 392 -370v-845h-167l-9 187h-13c-66 -136 -199 -213 -315 -213c-185 0 -309 132 -309 305c0 171 73 278 205 360c107 67 255 115 427 136l1 52c3 162 -68 225 -205 225c-130 0 -208 -66 -263 -180l-146 84
c80 177 218 259 402 259zM402 141c134 2 221 106 275 218v267c-121 -14 -238 -50 -319 -110c-72 -52 -116 -122 -116 -211c0 -104 71 -166 160 -164z" />
    <glyph glyph-name="amacron" unicode="&#x101;" horiz-adv-x="980" 
d="M747 1476v-126h-516v126h516zM467 1215c227 0 392 -121 392 -370v-845h-167l-9 187h-13c-66 -136 -199 -213 -315 -213c-185 0 -309 132 -309 305c0 171 73 278 205 360c107 67 255 115 427 136l1 52c3 162 -68 225 -205 225c-130 0 -208 -66 -263 -180l-146 84
c80 177 218 259 402 259zM402 141c134 2 221 106 275 218v267c-121 -14 -238 -50 -319 -110c-72 -52 -116 -122 -116 -211c0 -104 71 -166 160 -164z" />
    <glyph glyph-name="aogonek" unicode="&#x105;" horiz-adv-x="980" 
d="M896 -314l86 -69c-39 -77 -100 -129 -192 -129c-107 0 -197 88 -197 230c0 111 68 211 143 282h-44l-9 187h-13c-66 -136 -199 -213 -315 -213c-185 0 -309 132 -309 305c0 171 73 278 205 360c107 67 255 115 427 136l1 52c3 162 -68 225 -205 225
c-130 0 -208 -66 -263 -180l-146 84c80 177 218 259 402 259c227 0 392 -121 392 -370v-845c-95 -81 -150 -165 -150 -258c0 -89 39 -131 85 -131c34 0 74 24 102 75zM677 359v267c-121 -14 -238 -50 -319 -110c-72 -52 -116 -122 -116 -211c0 -104 71 -166 160 -164
c134 2 221 106 275 218z" />
    <glyph glyph-name="aring" unicode="&#xe5;" horiz-adv-x="980" 
d="M490 1274c-129 0 -221 97 -221 230c0 131 92 226 221 226c127 0 219 -95 219 -226c0 -133 -92 -230 -219 -230zM490 1380c69 0 116 51 116 122s-47 123 -116 123s-117 -52 -117 -123s48 -122 117 -122zM467 1215c227 0 392 -121 392 -370v-845h-167l-9 187h-13
c-66 -136 -199 -213 -315 -213c-185 0 -309 132 -309 305c0 171 73 278 205 360c107 67 255 115 427 136l1 52c3 162 -68 225 -205 225c-130 0 -208 -66 -263 -180l-146 84c80 177 218 259 402 259zM402 141c134 2 221 106 275 218v267c-121 -14 -238 -50 -319 -110
c-72 -52 -116 -122 -116 -211c0 -104 71 -166 160 -164z" />
    <glyph glyph-name="atilde" unicode="&#xe3;" horiz-adv-x="980" 
d="M633 1323c-146 0 -182 162 -274 162c-55 0 -84 -67 -82 -144h-117c0 159 60 266 181 266c151 0 184 -168 280 -168c58 0 82 66 82 167h118c0 -189 -72 -283 -188 -283zM467 1215c227 0 392 -121 392 -370v-845h-167l-9 187h-13c-66 -136 -199 -213 -315 -213
c-185 0 -309 132 -309 305c0 171 73 278 205 360c107 67 255 115 427 136l1 52c3 162 -68 225 -205 225c-130 0 -208 -66 -263 -180l-146 84c80 177 218 259 402 259zM402 141c134 2 221 106 275 218v267c-121 -14 -238 -50 -319 -110c-72 -52 -116 -122 -116 -211
c0 -104 71 -166 160 -164z" />
    <glyph glyph-name="ae" unicode="&#xe6;" horiz-adv-x="1613" 
d="M1553 621c0 -34 0 -64 -4 -91h-678c8 -205 100 -385 291 -385c91 0 171 37 238 116l125 -92c-102 -147 -231 -192 -367 -192c-180 0 -309 90 -387 229h-31c-107 -150 -221 -232 -385 -232c-185 0 -309 132 -309 305c0 171 73 278 205 360c107 67 255 115 427 136l1 52
c3 162 -68 225 -205 225c-130 0 -208 -66 -263 -180l-146 84c80 177 218 259 402 259c147 0 269 -51 336 -155c71 95 176 155 326 155c354 0 424 -312 424 -594zM1130 1051c-198 0 -253 -186 -258 -374h506c-3 226 -46 374 -248 374zM402 141c159 2 244 119 303 238
c-17 68 -25 141 -25 217v30c-122 -13 -240 -50 -322 -110c-72 -52 -116 -122 -116 -211c0 -104 71 -166 160 -164z" />
    <glyph glyph-name="b" unicode="b" horiz-adv-x="1136" 
d="M652 1215c257 0 414 -218 414 -619c0 -380 -148 -622 -416 -622c-145 0 -248 77 -310 212h-8l-3 -186h-186v1606h194v-602h8c64 137 162 211 307 211zM595 145c147 0 275 133 275 452c0 311 -131 444 -275 444c-166 0 -265 -172 -265 -444c0 -280 99 -452 265 -452z" />
    <glyph glyph-name="c" unicode="c" horiz-adv-x="938" 
d="M512 -26c-318 0 -445 292 -445 619c0 335 127 622 445 622c222 0 338 -120 396 -329l-164 -55c-27 140 -93 225 -227 225c-207 0 -257 -244 -257 -464c0 -217 50 -456 257 -456c139 0 201 92 229 221l156 -47c-53 -219 -171 -336 -390 -336z" />
    <glyph glyph-name="cacute" unicode="&#x107;" horiz-adv-x="938" 
d="M396 1333l203 273h222l-280 -273h-145zM512 -26c-318 0 -445 292 -445 619c0 335 127 622 445 622c222 0 338 -120 396 -329l-164 -55c-27 140 -93 225 -227 225c-207 0 -257 -244 -257 -464c0 -217 50 -456 257 -456c139 0 201 92 229 221l156 -47
c-53 -219 -171 -336 -390 -336z" />
    <glyph glyph-name="ccaron" unicode="&#x10d;" horiz-adv-x="938" 
d="M361 1329l-199 277h153l153 -169l153 169h154l-199 -277h-215zM512 -26c-318 0 -445 292 -445 619c0 335 127 622 445 622c222 0 338 -120 396 -329l-164 -55c-27 140 -93 225 -227 225c-207 0 -257 -244 -257 -464c0 -217 50 -456 257 -456c139 0 201 92 229 221
l156 -47c-53 -219 -171 -336 -390 -336z" />
    <glyph glyph-name="ccedilla" unicode="&#xe7;" horiz-adv-x="938" 
d="M517 136c139 0 201 92 229 221l156 -47c-52 -213 -165 -330 -373 -336l-47 -92c103 -50 171 -113 171 -217c0 -109 -73 -206 -187 -206c-88 0 -152 58 -183 133l91 62c12 -48 40 -81 86 -81c54 0 76 44 76 86c0 76 -69 123 -187 171l67 154c-248 53 -349 317 -349 609
c0 335 127 622 445 622c222 0 338 -120 396 -329l-164 -55c-27 140 -93 225 -227 225c-207 0 -257 -244 -257 -464c0 -217 50 -456 257 -456z" />
    <glyph glyph-name="cdotaccent" unicode="&#x10b;" horiz-adv-x="938" 
d="M371 1378v228h195v-228h-195zM512 -26c-318 0 -445 292 -445 619c0 335 127 622 445 622c222 0 338 -120 396 -329l-164 -55c-27 140 -93 225 -227 225c-207 0 -257 -244 -257 -464c0 -217 50 -456 257 -456c139 0 201 92 229 221l156 -47c-53 -219 -171 -336 -390 -336z
" />
    <glyph glyph-name="d" unicode="d" horiz-adv-x="1136" 
d="M799 1606h194v-1606h-186l-3 186h-8c-62 -135 -165 -212 -310 -212c-268 0 -416 242 -416 622c0 401 157 619 414 619c145 0 243 -74 307 -211h8v602zM541 145c166 0 265 172 265 452c0 272 -99 444 -265 444c-144 0 -275 -133 -275 -444c0 -319 128 -452 275 -452z" />
    <glyph glyph-name="eth" unicode="&#xf0;" horiz-adv-x="1045" 
d="M556 1590c293 -207 403 -497 403 -1004c0 -329 -163 -605 -449 -605c-291 0 -452 276 -452 605c0 334 166 606 431 606c109 0 208 -60 246 -134c-34 185 -137 296 -259 383l-78 -145l-81 56l79 142l-147 87l73 141c56 -26 107 -53 155 -81l76 137l76 -51zM511 157
c177 0 255 205 255 429c0 233 -81 430 -255 430c-182 0 -260 -205 -260 -430c0 -224 78 -429 260 -429z" />
    <glyph glyph-name="dcaron" unicode="&#x10f;" horiz-adv-x="1331" 
d="M799 1004v602h194v-1606h-186l-3 186h-8c-62 -135 -165 -212 -310 -212c-268 0 -416 242 -416 622c0 401 157 619 414 619c145 0 243 -74 307 -211h8zM1141 1606h251v-259l-143 -362h-110l97 362h-95v259zM541 145c166 0 265 172 265 452c0 272 -99 444 -265 444
c-144 0 -275 -133 -275 -444c0 -319 128 -452 275 -452z" />
    <glyph glyph-name="dcroat" unicode="&#x111;" horiz-adv-x="1136" 
d="M1074 1452v-110h-81v-1342h-186l-3 186h-8c-62 -135 -165 -212 -310 -212c-268 0 -416 242 -416 622c0 401 157 619 414 619c145 0 243 -74 307 -211h8v338h-322v110h322v154h194v-154h81zM541 145c166 0 265 172 265 452c0 272 -99 444 -265 444
c-144 0 -275 -133 -275 -444c0 -319 128 -452 275 -452z" />
    <glyph glyph-name="e" unicode="e" horiz-adv-x="998" 
d="M937 621c0 -34 0 -64 -4 -91h-678c8 -206 100 -385 291 -385c91 0 172 36 238 116l125 -92c-101 -147 -231 -193 -367 -193c-319 0 -478 286 -478 620c0 319 114 619 449 619c354 0 424 -312 424 -594zM514 1051c-198 0 -252 -186 -258 -374h510c-6 226 -50 374 -252 374
z" />
    <glyph glyph-name="eacute" unicode="&#xe9;" horiz-adv-x="998" 
d="M852 1606l-280 -273h-145l203 273h222zM937 621c0 -34 0 -64 -4 -91h-678c8 -206 100 -385 291 -385c91 0 172 36 238 116l125 -92c-101 -147 -231 -193 -367 -193c-319 0 -478 286 -478 620c0 319 114 619 449 619c354 0 424 -312 424 -594zM514 1051
c-198 0 -252 -186 -258 -374h510c-6 226 -50 374 -252 374z" />
    <glyph glyph-name="ecaron" unicode="&#x11b;" horiz-adv-x="998" 
d="M607 1329h-215l-199 277h153l153 -169l153 169h154zM937 621c0 -34 0 -64 -4 -91h-678c8 -206 100 -385 291 -385c91 0 172 36 238 116l125 -92c-101 -147 -231 -193 -367 -193c-319 0 -478 286 -478 620c0 319 114 619 449 619c354 0 424 -312 424 -594zM514 1051
c-198 0 -252 -186 -258 -374h510c-6 226 -50 374 -252 374z" />
    <glyph glyph-name="ecircumflex" unicode="&#xea;" horiz-adv-x="998" 
d="M499 1498l-153 -170h-153l199 278h215l199 -278h-154zM937 621c0 -34 0 -64 -4 -91h-678c8 -206 100 -385 291 -385c91 0 172 36 238 116l125 -92c-101 -147 -231 -193 -367 -193c-319 0 -478 286 -478 620c0 319 114 619 449 619c354 0 424 -312 424 -594zM514 1051
c-198 0 -252 -186 -258 -374h510c-6 226 -50 374 -252 374z" />
    <glyph glyph-name="edieresis" unicode="&#xeb;" horiz-adv-x="998" 
d="M429 1606v-228h-172v228h172zM744 1606v-228h-170v228h170zM937 621c0 -34 0 -64 -4 -91h-678c8 -206 100 -385 291 -385c91 0 172 36 238 116l125 -92c-101 -147 -231 -193 -367 -193c-319 0 -478 286 -478 620c0 319 114 619 449 619c354 0 424 -312 424 -594z
M514 1051c-198 0 -252 -186 -258 -374h510c-6 226 -50 374 -252 374z" />
    <glyph glyph-name="edotaccent" unicode="&#x117;" horiz-adv-x="998" 
d="M597 1606v-228h-195v228h195zM937 621c0 -34 0 -64 -4 -91h-678c8 -206 100 -385 291 -385c91 0 172 36 238 116l125 -92c-101 -147 -231 -193 -367 -193c-319 0 -478 286 -478 620c0 319 114 619 449 619c354 0 424 -312 424 -594zM514 1051c-198 0 -252 -186 -258 -374
h510c-6 226 -50 374 -252 374z" />
    <glyph glyph-name="egrave" unicode="&#xe8;" horiz-adv-x="998" 
d="M578 1330h-156l-268 276h224zM937 621c0 -34 0 -64 -4 -91h-678c8 -206 100 -385 291 -385c91 0 172 36 238 116l125 -92c-101 -147 -231 -193 -367 -193c-319 0 -478 286 -478 620c0 319 114 619 449 619c354 0 424 -312 424 -594zM514 1051c-198 0 -252 -186 -258 -374
h510c-6 226 -50 374 -252 374z" />
    <glyph glyph-name="emacron" unicode="&#x113;" horiz-adv-x="998" 
d="M757 1476v-126h-516v126h516zM937 621c0 -34 0 -64 -4 -91h-678c8 -206 100 -385 291 -385c91 0 172 36 238 116l125 -92c-101 -147 -231 -193 -367 -193c-319 0 -478 286 -478 620c0 319 114 619 449 619c354 0 424 -312 424 -594zM514 1051c-198 0 -252 -186 -258 -374
h510c-6 226 -50 374 -252 374z" />
    <glyph glyph-name="eogonek" unicode="&#x119;" horiz-adv-x="998" 
d="M855 -247l86 -69c-39 -77 -100 -129 -192 -129c-107 0 -197 88 -197 230c0 72 28 139 69 197c-26 -4 -52 -6 -79 -6c-319 0 -478 286 -478 620c0 319 114 619 449 619c354 0 424 -312 424 -594c0 -34 0 -64 -4 -91h-678c8 -206 100 -385 291 -385c91 0 172 36 238 116
l125 -92c-29 -42 -60 -75 -92 -102h1c-95 -81 -150 -165 -150 -258c0 -89 39 -131 85 -131c34 0 74 24 102 75zM514 1051c-198 0 -252 -186 -258 -374h510c-6 226 -50 374 -252 374z" />
    <glyph glyph-name="f" unicode="f" horiz-adv-x="588" 
d="M177 0v1048h-163v144h164v75c0 205 103 339 283 339h140v-151h-102c-83 0 -132 -70 -132 -178v-85h234v-144h-230v-1048h-194z" />
    <glyph glyph-name="g" unicode="g" horiz-adv-x="1125" 
d="M799 1192h183v-1115c0 -368 -193 -515 -461 -515c-173 0 -358 78 -430 248l123 95c68 -139 196 -187 305 -187c165 0 272 102 272 355v126c-63 -111 -164 -183 -312 -183c-275 0 -418 272 -418 604c0 327 144 595 429 595c115 0 228 -41 294 -166h11zM540 179
c193 0 272 178 272 418c0 235 -76 455 -280 455c-192 0 -275 -196 -275 -438c0 -236 81 -435 283 -435z" />
    <glyph glyph-name="gbreve" unicode="&#x11f;" horiz-adv-x="1125" 
d="M560 1324c-165 0 -281 84 -281 282h134c0 -113 68 -158 147 -158s149 45 149 158h135c0 -198 -119 -282 -284 -282zM799 1192h183v-1115c0 -368 -193 -515 -461 -515c-173 0 -358 78 -430 248l123 95c68 -139 196 -187 305 -187c165 0 272 102 272 355v126
c-63 -111 -164 -183 -312 -183c-275 0 -418 272 -418 604c0 327 144 595 429 595c115 0 228 -41 294 -166h11zM540 179c193 0 272 178 272 418c0 235 -76 455 -280 455c-192 0 -275 -196 -275 -438c0 -236 81 -435 283 -435z" />
    <glyph glyph-name="uni0123" unicode="&#x123;" horiz-adv-x="1125" 
d="M786 1606l-117 -307h-214l219 307h112zM799 1192h183v-1115c0 -368 -193 -515 -461 -515c-173 0 -358 78 -430 248l123 95c68 -139 196 -187 305 -187c165 0 272 102 272 355v126c-63 -111 -164 -183 -312 -183c-275 0 -418 272 -418 604c0 327 144 595 429 595
c115 0 228 -41 294 -166h11zM540 179c193 0 272 178 272 418c0 235 -76 455 -280 455c-192 0 -275 -196 -275 -438c0 -236 81 -435 283 -435z" />
    <glyph glyph-name="gdotaccent" unicode="&#x121;" horiz-adv-x="1125" 
d="M659 1606v-228h-195v228h195zM799 1192h183v-1115c0 -368 -193 -515 -461 -515c-173 0 -358 78 -430 248l123 95c68 -139 196 -187 305 -187c165 0 272 102 272 355v126c-63 -111 -164 -183 -312 -183c-275 0 -418 272 -418 604c0 327 144 595 429 595
c115 0 228 -41 294 -166h11zM540 179c193 0 272 178 272 418c0 235 -76 455 -280 455c-192 0 -275 -196 -275 -438c0 -236 81 -435 283 -435z" />
    <glyph glyph-name="h" unicode="h" horiz-adv-x="1071" 
d="M143 0v1606h193v-597h9c57 124 150 206 283 206c198 0 323 -152 323 -400v-815h-194v792c0 188 -68 251 -180 251c-141 0 -240 -135 -240 -339v-704h-194z" />
    <glyph glyph-name="hbar" unicode="&#x127;" horiz-adv-x="1071" 
d="M628 1215c198 0 323 -152 323 -400v-815h-194v792c0 188 -68 251 -180 251c-141 0 -240 -135 -240 -339v-704h-194v1342h-130v110h130v154h193v-154h274v-110h-274v-333h9c57 124 150 206 283 206z" />
    <glyph glyph-name="i" unicode="i" horiz-adv-x="479" 
d="M143 1378v228h195v-228h-195zM142 0v1192h196v-1192h-196z" />
    <glyph glyph-name="dotlessi" unicode="&#x131;" horiz-adv-x="478" 
d="M142 0v1192h194v-1192h-194z" />
    <glyph glyph-name="iacute" unicode="&#xed;" horiz-adv-x="478" 
d="M166 1333l203 273h222l-280 -273h-145zM142 0v1192h194v-1192h-194z" />
    <glyph glyph-name="icircumflex" unicode="&#xee;" horiz-adv-x="478" 
d="M-68 1328l199 278h215l199 -278h-154l-153 170l-153 -170h-153zM142 0v1192h194v-1192h-194z" />
    <glyph glyph-name="idieresis" unicode="&#xef;" horiz-adv-x="478" 
d="M-4 1378v228h172v-228h-172zM313 1378v228h170v-228h-170zM142 0v1192h194v-1192h-194z" />
    <glyph glyph-name="i.loclTRK" horiz-adv-x="478" 
d="M141 1378v228h195v-228h-195zM142 0v1192h194v-1192h-194z" />
    <glyph glyph-name="igrave" unicode="&#xec;" horiz-adv-x="478" 
d="M161 1330l-268 276h224l200 -276h-156zM142 0v1192h194v-1192h-194z" />
    <glyph glyph-name="imacron" unicode="&#x12b;" horiz-adv-x="478" 
d="M-20 1350v126h516v-126h-516zM142 0v1192h194v-1192h-194z" />
    <glyph glyph-name="iogonek" unicode="&#x12f;" horiz-adv-x="478" 
d="M336 1606v-228h-195v228h195zM373 -314l86 -69c-39 -77 -100 -129 -192 -129c-107 0 -197 88 -197 230c0 111 68 211 143 282h-71v1192h194v-1192c-95 -81 -150 -165 -150 -258c0 -89 39 -131 85 -131c34 0 74 24 102 75z" />
    <glyph glyph-name="j" unicode="j" horiz-adv-x="482" 
d="M135 1376v230h210v-230h-210zM45 -380c-29 0 -59 2 -92 8v161c27 -8 51 -13 71 -13c85 0 120 70 120 181v1235h196v-1212c0 -247 -109 -360 -295 -360z" />
    <glyph glyph-name="uni0237" unicode="&#x237;" horiz-adv-x="479" 
d="M-41 -414v160h86c69 0 98 57 98 143v1303h193v-1291c0 -209 -74 -315 -260 -315h-117z" />
    <glyph glyph-name="k" unicode="k" horiz-adv-x="1000" 
d="M998 0h-215l-279 653l-167 -184v-469h-194v1606h194v-923l397 509h225l-329 -394z" />
    <glyph glyph-name="uni0137" unicode="&#x137;" horiz-adv-x="1000" 
d="M630 798l368 -798h-215l-279 653l-167 -184v-469h-194v1606h194v-923l397 509h225zM276 -504l116 344h215l-219 -344h-112z" />
    <glyph glyph-name="kgreenlandic" unicode="&#x138;" horiz-adv-x="999" 
d="M997 0h-215l-278 650l-168 -200v-450h-194v1192h194v-509l397 509h225l-330 -393z" />
    <glyph glyph-name="l" unicode="l" horiz-adv-x="480" 
d="M143 0v1606h194v-1606h-194z" />
    <glyph glyph-name="lacute" unicode="&#x13a;" horiz-adv-x="480" 
d="M167 1747l203 273h222l-280 -273h-145zM143 0v1606h194v-1606h-194z" />
    <glyph glyph-name="lcaron" unicode="&#x13e;" horiz-adv-x="636" 
d="M143 0v1606h194v-1606h-194zM444 985l97 362h-95v259h251v-259l-143 -362h-110z" />
    <glyph glyph-name="uni013C" unicode="&#x13c;" horiz-adv-x="480" 
d="M143 0v1606h194v-1606h-194zM16 -504l116 344h215l-219 -344h-112z" />
    <glyph glyph-name="lslash" unicode="&#x142;" horiz-adv-x="480" 
d="M478 1107v-191l-141 -124v-792h-194v622l-140 -123v185l140 125v797h194v-625z" />
    <glyph glyph-name="m" unicode="m" horiz-adv-x="1590" 
d="M142 0v1192h187l4 -169h5c50 113 139 192 265 192c118 0 222 -38 262 -223h5c69 153 154 225 295 223c195 -2 301 -141 301 -369v-846h-193v824c0 120 -50 218 -178 218c-139 0 -196 -149 -196 -339v-703h-194v789c0 162 -46 253 -171 253c-142 0 -198 -151 -198 -339
v-703h-194z" />
    <glyph glyph-name="n" unicode="n" horiz-adv-x="1070" 
d="M142 0v1192h189l4 -183h9c57 124 150 206 283 206c198 0 322 -152 322 -400v-815h-193v796c0 188 -68 251 -181 251c-140 0 -239 -135 -239 -339v-708h-194z" />
    <glyph glyph-name="nacute" unicode="&#x144;" horiz-adv-x="1070" 
d="M463 1333l203 273h222l-280 -273h-145zM142 0v1192h189l4 -183h9c57 124 150 206 283 206c198 0 322 -152 322 -400v-815h-193v796c0 188 -68 251 -181 251c-140 0 -239 -135 -239 -339v-708h-194z" />
    <glyph glyph-name="ncaron" unicode="&#x148;" horiz-adv-x="1070" 
d="M428 1329l-199 277h153l153 -169l153 169h154l-199 -277h-215zM142 0v1192h189l4 -183h9c57 124 150 206 283 206c198 0 322 -152 322 -400v-815h-193v796c0 188 -68 251 -181 251c-140 0 -239 -135 -239 -339v-708h-194z" />
    <glyph glyph-name="uni0146" unicode="&#x146;" horiz-adv-x="1070" 
d="M142 0v1192h189l4 -183h9c57 124 150 206 283 206c198 0 322 -152 322 -400v-815h-193v796c0 188 -68 251 -181 251c-140 0 -239 -135 -239 -339v-708h-194zM312 -504l116 344h215l-219 -344h-112z" />
    <glyph glyph-name="eng" unicode="&#x14b;" horiz-adv-x="1056" 
d="M566 -408v127h49c132 0 138 139 138 180v768c0 154 -40 309 -181 309c-135 0 -242 -150 -242 -336v-640h-192v1136h183l4 -187h13c64 140 174 205 289 205c231 0 319 -220 319 -463v-787c0 -81 -3 -312 -281 -312h-99z" />
    <glyph glyph-name="ntilde" unicode="&#xf1;" horiz-adv-x="1070" 
d="M679 1323c-146 0 -182 162 -274 162c-55 0 -84 -67 -82 -144h-117c0 159 60 266 181 266c151 0 184 -168 280 -168c58 0 82 66 82 167h118c0 -189 -72 -283 -188 -283zM142 0v1192h189l4 -183h9c57 124 150 206 283 206c198 0 322 -152 322 -400v-815h-193v796
c0 188 -68 251 -181 251c-140 0 -239 -135 -239 -339v-708h-194z" />
    <glyph glyph-name="o" unicode="o" horiz-adv-x="1056" 
d="M529 -26c-274 0 -462 195 -462 617c0 430 188 624 462 624c270 0 461 -194 461 -624c0 -422 -191 -617 -461 -617zM528 139c168 0 276 119 276 453c0 341 -108 460 -276 460c-164 0 -271 -119 -271 -460c0 -334 107 -453 271 -453z" />
    <glyph glyph-name="oacute" unicode="&#xf3;" horiz-adv-x="1056" 
d="M455 1333l203 273h222l-280 -273h-145zM529 -26c-274 0 -462 195 -462 617c0 430 188 624 462 624c270 0 461 -194 461 -624c0 -422 -191 -617 -461 -617zM528 139c168 0 276 119 276 453c0 341 -108 460 -276 460c-164 0 -271 -119 -271 -460c0 -334 107 -453 271 -453z
" />
    <glyph glyph-name="ocircumflex" unicode="&#xf4;" horiz-adv-x="1056" 
d="M221 1328l199 278h215l199 -278h-154l-153 170l-153 -170h-153zM529 -26c-274 0 -462 195 -462 617c0 430 188 624 462 624c270 0 461 -194 461 -624c0 -422 -191 -617 -461 -617zM528 139c168 0 276 119 276 453c0 341 -108 460 -276 460c-164 0 -271 -119 -271 -460
c0 -334 107 -453 271 -453z" />
    <glyph glyph-name="odieresis" unicode="&#xf6;" horiz-adv-x="1056" 
d="M285 1378v228h172v-228h-172zM602 1378v228h170v-228h-170zM529 -26c-274 0 -462 195 -462 617c0 430 188 624 462 624c270 0 461 -194 461 -624c0 -422 -191 -617 -461 -617zM528 139c168 0 276 119 276 453c0 341 -108 460 -276 460c-164 0 -271 -119 -271 -460
c0 -334 107 -453 271 -453z" />
    <glyph glyph-name="ograve" unicode="&#xf2;" horiz-adv-x="1056" 
d="M450 1330l-268 276h224l200 -276h-156zM529 -26c-274 0 -462 195 -462 617c0 430 188 624 462 624c270 0 461 -194 461 -624c0 -422 -191 -617 -461 -617zM528 139c168 0 276 119 276 453c0 341 -108 460 -276 460c-164 0 -271 -119 -271 -460c0 -334 107 -453 271 -453z
" />
    <glyph glyph-name="ohungarumlaut" unicode="&#x151;" horiz-adv-x="1056" 
d="M287 1330l190 276h196l-230 -276h-156zM611 1330l189 276h215l-251 -276h-153zM529 -26c-274 0 -462 195 -462 617c0 430 188 624 462 624c270 0 461 -194 461 -624c0 -422 -191 -617 -461 -617zM528 139c168 0 276 119 276 453c0 341 -108 460 -276 460
c-164 0 -271 -119 -271 -460c0 -334 107 -453 271 -453z" />
    <glyph glyph-name="omacron" unicode="&#x14d;" horiz-adv-x="1056" 
d="M269 1350v126h516v-126h-516zM529 -26c-274 0 -462 195 -462 617c0 430 188 624 462 624c270 0 461 -194 461 -624c0 -422 -191 -617 -461 -617zM528 139c168 0 276 119 276 453c0 341 -108 460 -276 460c-164 0 -271 -119 -271 -460c0 -334 107 -453 271 -453z" />
    <glyph glyph-name="oslash" unicode="&#xf8;" horiz-adv-x="1056" 
d="M1010 1114l-100 -125c51 -99 80 -230 80 -398c0 -422 -191 -617 -461 -617c-131 0 -243 45 -323 137l-79 -98l-80 66l98 123c-50 97 -78 226 -78 389c0 430 188 624 462 624c129 0 239 -44 320 -137l80 100zM257 592c0 -89 8 -163 22 -224l457 570
c-48 81 -120 114 -208 114c-164 0 -271 -119 -271 -460zM804 592c0 95 -8 172 -24 235l-458 -571c47 -83 118 -117 206 -117c168 0 276 119 276 453z" />
    <glyph glyph-name="otilde" unicode="&#xf5;" horiz-adv-x="1056" 
d="M671 1323c-146 0 -182 162 -274 162c-55 0 -84 -67 -82 -144h-117c0 159 60 266 181 266c151 0 184 -168 280 -168c58 0 82 66 82 167h118c0 -189 -72 -283 -188 -283zM529 -26c-274 0 -462 195 -462 617c0 430 188 624 462 624c270 0 461 -194 461 -624
c0 -422 -191 -617 -461 -617zM528 139c168 0 276 119 276 453c0 341 -108 460 -276 460c-164 0 -271 -119 -271 -460c0 -334 107 -453 271 -453z" />
    <glyph glyph-name="oe" unicode="&#x153;" horiz-adv-x="1755" 
d="M1694 621c0 -34 0 -64 -4 -91h-678c8 -205 100 -385 291 -385c91 0 172 37 239 116l124 -92c-101 -147 -231 -192 -367 -192c-179 0 -308 90 -386 228c-80 -157 -217 -231 -384 -231c-274 0 -462 195 -462 617c0 430 188 624 462 624c161 0 295 -69 376 -217
c69 130 185 217 366 217c353 0 423 -312 423 -594zM528 139c168 0 276 119 276 453c0 341 -108 460 -276 460c-164 0 -271 -119 -271 -460c0 -334 107 -453 271 -453zM1271 1051c-198 0 -252 -186 -258 -374h506c-3 226 -46 374 -248 374z" />
    <glyph glyph-name="p" unicode="p" horiz-adv-x="1134" 
d="M143 -414v1606h180l4 -177h12c60 129 167 200 313 200c262 0 412 -220 412 -619c0 -400 -151 -622 -404 -622c-154 0 -256 75 -321 181h-4v-569h-192zM593 139c172 0 276 135 276 458c0 321 -104 453 -276 453c-165 0 -270 -170 -270 -453c0 -285 105 -458 270 -458z" />
    <glyph glyph-name="thorn" unicode="&#xfe;" horiz-adv-x="1136" 
d="M145 -414v2020h184v-572h12c60 110 167 181 313 181c262 0 412 -220 412 -619c0 -400 -151 -622 -408 -622c-150 0 -258 85 -317 189h-4v-577h-192zM595 139c172 0 276 135 276 458c0 321 -104 453 -276 453c-165 0 -270 -170 -270 -453c0 -285 105 -458 270 -458z" />
    <glyph glyph-name="q" unicode="q" horiz-adv-x="1135" 
d="M800 -414v569h-5c-64 -106 -166 -181 -320 -181c-254 0 -404 222 -404 622c0 399 150 619 412 619c145 0 253 -71 313 -200h12l4 177h180v-1606h-192zM541 139c166 0 271 173 271 458c0 283 -105 453 -271 453c-171 0 -275 -132 -275 -453c0 -323 104 -458 275 -458z" />
    <glyph glyph-name="r" unicode="r" horiz-adv-x="675" 
d="M142 0v1192h182l5 -192h6c45 134 133 210 230 210c49 0 91 -6 118 -20v-183c-43 13 -80 18 -108 16c-151 -12 -239 -145 -239 -397v-626h-194z" />
    <glyph glyph-name="racute" unicode="&#x155;" horiz-adv-x="675" 
d="M265 1333l203 273h222l-280 -273h-145zM142 0v1192h182l5 -192h6c45 134 133 210 230 210c49 0 91 -6 118 -20v-183c-43 13 -80 18 -108 16c-151 -12 -239 -145 -239 -397v-626h-194z" />
    <glyph glyph-name="rcaron" unicode="&#x159;" horiz-adv-x="675" 
d="M230 1329l-199 277h153l153 -169l153 169h154l-199 -277h-215zM142 0v1192h182l5 -192h6c45 134 133 210 230 210c49 0 91 -6 118 -20v-183c-43 13 -80 18 -108 16c-151 -12 -239 -145 -239 -397v-626h-194z" />
    <glyph glyph-name="uni0157" unicode="&#x157;" horiz-adv-x="675" 
d="M142 0v1192h182l5 -192h6c45 134 133 210 230 210c49 0 91 -6 118 -20v-183c-43 13 -80 18 -108 16c-151 -12 -239 -145 -239 -397v-626h-194zM114 -504l116 344h215l-219 -344h-112z" />
    <glyph glyph-name="s" unicode="s" horiz-adv-x="901" 
d="M492 -24c-230 0 -404 129 -468 359l159 73c33 -178 166 -274 286 -274c103 0 187 59 187 174c0 136 -126 180 -264 242c-145 65 -297 134 -297 339c0 234 200 326 367 326c150 0 317 -61 372 -275l-151 -49c-36 129 -120 181 -212 181s-189 -44 -189 -170
c0 -132 126 -179 259 -233c169 -70 310 -150 310 -361c0 -203 -155 -332 -359 -332z" />
    <glyph glyph-name="sacute" unicode="&#x15b;" horiz-adv-x="901" 
d="M378 1333l203 273h222l-280 -273h-145zM492 -24c-230 0 -404 129 -468 359l159 73c33 -178 166 -274 286 -274c103 0 187 59 187 174c0 136 -126 180 -264 242c-145 65 -297 134 -297 339c0 234 200 326 367 326c150 0 317 -61 372 -275l-151 -49
c-36 129 -120 181 -212 181s-189 -44 -189 -170c0 -132 126 -179 259 -233c169 -70 310 -150 310 -361c0 -203 -155 -332 -359 -332z" />
    <glyph glyph-name="scaron" unicode="&#x161;" horiz-adv-x="901" 
d="M343 1329l-199 277h153l153 -169l153 169h154l-199 -277h-215zM492 -24c-230 0 -404 129 -468 359l159 73c33 -178 166 -274 286 -274c103 0 187 59 187 174c0 136 -126 180 -264 242c-145 65 -297 134 -297 339c0 234 200 326 367 326c150 0 317 -61 372 -275l-151 -49
c-36 129 -120 181 -212 181s-189 -44 -189 -170c0 -132 126 -179 259 -233c169 -70 310 -150 310 -361c0 -203 -155 -332 -359 -332z" />
    <glyph glyph-name="scedilla" unicode="&#x15f;" horiz-adv-x="901" 
d="M851 308c0 -196 -145 -323 -339 -332l-48 -94c103 -50 171 -113 171 -217c0 -109 -73 -206 -187 -206c-88 0 -152 58 -183 133l91 62c12 -48 40 -81 86 -81c54 0 76 44 76 86c0 76 -69 123 -187 171l67 154c-183 30 -319 153 -374 351l159 73c33 -178 166 -274 286 -274
c103 0 187 59 187 174c0 136 -126 180 -264 242c-145 65 -297 134 -297 339c0 234 200 326 367 326c150 0 317 -61 372 -275l-151 -49c-36 129 -120 181 -212 181s-189 -44 -189 -170c0 -132 126 -179 259 -233c169 -70 310 -150 310 -361z" />
    <glyph glyph-name="uni0219" unicode="&#x219;" horiz-adv-x="901" 
d="M492 -24c-230 0 -404 129 -468 359l159 73c33 -178 166 -274 286 -274c103 0 187 59 187 174c0 136 -126 180 -264 242c-145 65 -297 134 -297 339c0 234 200 326 367 326c150 0 317 -61 372 -275l-151 -49c-36 129 -120 181 -212 181s-189 -44 -189 -170
c0 -132 126 -179 259 -233c169 -70 310 -150 310 -361c0 -203 -155 -332 -359 -332zM227 -504l116 344h215l-219 -344h-112z" />
    <glyph glyph-name="germandbls" unicode="&#xdf;" horiz-adv-x="1038" 
d="M671 -21c-57 0 -118 18 -173 40v183c62 -33 117 -48 161 -48c85 0 147 75 147 194c0 238 -261 254 -275 516l219 387c0 127 -88 207 -207 207c-135 0 -206 -95 -206 -266v-1192h-194v1188c0 282 171 441 389 441c208 0 396 -127 396 -400l-203 -355
c0 -185 279 -224 279 -525c0 -218 -142 -370 -333 -370z" />
    <glyph glyph-name="t" unicode="t" horiz-adv-x="627" 
d="M425 0c-184 0 -263 103 -263 317v731h-139v144h146l35 274h151v-274h245v-144h-245v-689c0 -150 33 -202 140 -202h86v-157h-156z" />
    <glyph glyph-name="tbar" unicode="&#x167;" horiz-adv-x="627" 
d="M612 541h-257v-182c0 -150 33 -202 140 -202h86v-157h-156c-184 0 -263 103 -263 317v224h-147v110h147v397h-139v144h146l35 274h151v-274h245v-144h-245v-397h257v-110z" />
    <glyph glyph-name="tcaron" unicode="&#x165;" horiz-adv-x="627" 
d="M499 1364l98 362h-95v259h250v-259l-143 -362h-110zM425 0c-184 0 -263 103 -263 317v731h-139v144h146l35 274h151v-274h245v-144h-245v-689c0 -150 33 -202 140 -202h86v-157h-156z" />
    <glyph glyph-name="uni0163" unicode="&#x163;" horiz-adv-x="627" 
d="M600 1048h-245v-689c0 -150 33 -202 140 -202h86v-157h-156h-2l-60 -118c103 -50 171 -113 171 -217c0 -109 -73 -206 -187 -206c-88 0 -152 58 -183 133l91 62c12 -48 40 -81 86 -81c54 0 76 44 76 86c0 76 -69 123 -187 171l82 187c-104 38 -150 136 -150 300v731h-139
v144h146l35 274h151v-274h245v-144z" />
    <glyph glyph-name="uni021B" unicode="&#x21b;" horiz-adv-x="627" 
d="M425 0c-184 0 -263 103 -263 317v731h-139v144h146l35 274h151v-274h245v-144h-245v-689c0 -150 33 -202 140 -202h86v-157h-156zM126 -504l116 344h215l-219 -344h-112z" />
    <glyph glyph-name="u" unicode="u" horiz-adv-x="1070" 
d="M438 -23c-190 0 -317 152 -317 400v815h193v-796c0 -74 6 -251 176 -251c148 0 244 135 244 339v708h194v-1192h-189l-4 183h-9c-59 -127 -148 -206 -288 -206z" />
    <glyph glyph-name="uacute" unicode="&#xfa;" horiz-adv-x="1070" 
d="M463 1333l203 273h222l-280 -273h-145zM438 -23c-190 0 -317 152 -317 400v815h193v-796c0 -74 6 -251 176 -251c148 0 244 135 244 339v708h194v-1192h-189l-4 183h-9c-59 -127 -148 -206 -288 -206z" />
    <glyph glyph-name="ucircumflex" unicode="&#xfb;" horiz-adv-x="1070" 
d="M229 1328l199 278h215l199 -278h-154l-153 170l-153 -170h-153zM438 -23c-190 0 -317 152 -317 400v815h193v-796c0 -74 6 -251 176 -251c148 0 244 135 244 339v708h194v-1192h-189l-4 183h-9c-59 -127 -148 -206 -288 -206z" />
    <glyph glyph-name="udieresis" unicode="&#xfc;" horiz-adv-x="1070" 
d="M293 1378v228h172v-228h-172zM610 1378v228h170v-228h-170zM438 -23c-190 0 -317 152 -317 400v815h193v-796c0 -74 6 -251 176 -251c148 0 244 135 244 339v708h194v-1192h-189l-4 183h-9c-59 -127 -148 -206 -288 -206z" />
    <glyph glyph-name="ugrave" unicode="&#xf9;" horiz-adv-x="1070" 
d="M458 1330l-268 276h224l200 -276h-156zM438 -23c-190 0 -317 152 -317 400v815h193v-796c0 -74 6 -251 176 -251c148 0 244 135 244 339v708h194v-1192h-189l-4 183h-9c-59 -127 -148 -206 -288 -206z" />
    <glyph glyph-name="uhungarumlaut" unicode="&#x171;" horiz-adv-x="1070" 
d="M295 1330l190 276h196l-230 -276h-156zM619 1330l189 276h215l-251 -276h-153zM438 -23c-190 0 -317 152 -317 400v815h193v-796c0 -74 6 -251 176 -251c148 0 244 135 244 339v708h194v-1192h-189l-4 183h-9c-59 -127 -148 -206 -288 -206z" />
    <glyph glyph-name="umacron" unicode="&#x16b;" horiz-adv-x="1070" 
d="M277 1350v126h516v-126h-516zM438 -23c-190 0 -317 152 -317 400v815h193v-796c0 -74 6 -251 176 -251c148 0 244 135 244 339v708h194v-1192h-189l-4 183h-9c-59 -127 -148 -206 -288 -206z" />
    <glyph glyph-name="uogonek" unicode="&#x173;" horiz-adv-x="1070" 
d="M965 -314l86 -69c-39 -77 -100 -129 -192 -129c-107 0 -197 88 -197 230c0 111 68 211 143 282h-66l-4 183h-9c-59 -127 -148 -206 -288 -206c-190 0 -317 152 -317 400v815h193v-796c0 -74 6 -251 176 -251c148 0 244 135 244 339v708h194v-1192
c-95 -81 -150 -165 -150 -258c0 -89 39 -131 85 -131c34 0 74 24 102 75z" />
    <glyph glyph-name="uring" unicode="&#x16f;" horiz-adv-x="1070" 
d="M536 1274c-129 0 -221 97 -221 230c0 131 92 226 221 226c127 0 219 -95 219 -226c0 -133 -92 -230 -219 -230zM536 1380c69 0 116 51 116 122s-47 123 -116 123s-117 -52 -117 -123s48 -122 117 -122zM438 -23c-190 0 -317 152 -317 400v815h193v-796
c0 -74 6 -251 176 -251c148 0 244 135 244 339v708h194v-1192h-189l-4 183h-9c-59 -127 -148 -206 -288 -206z" />
    <glyph glyph-name="v" unicode="v" horiz-adv-x="884" 
d="M665 1192h205l-301 -1192h-255l-300 1192h206l133 -617l90 -437l90 439z" />
    <glyph glyph-name="w" unicode="w" horiz-adv-x="1419" 
d="M1176 1192h203l-215 -1192h-258l-195 926h-6l-193 -928h-258l-214 1194h203l146 -1031l235 1031h170l235 -1035z" />
    <glyph glyph-name="wacute" unicode="&#x1e83;" horiz-adv-x="1419" 
d="M1063 1606l-280 -273h-145l203 273h222zM1176 1192h203l-215 -1192h-258l-195 926h-6l-193 -928h-258l-214 1194h203l146 -1031l235 1031h170l235 -1035z" />
    <glyph glyph-name="wcircumflex" unicode="&#x175;" horiz-adv-x="1419" 
d="M710 1498l-153 -170h-153l199 278h215l199 -278h-154zM1176 1192h203l-215 -1192h-258l-195 926h-6l-193 -928h-258l-214 1194h203l146 -1031l235 1031h170l235 -1035z" />
    <glyph glyph-name="wdieresis" unicode="&#x1e85;" horiz-adv-x="1419" 
d="M640 1606v-228h-172v228h172zM955 1606v-228h-170v228h170zM1176 1192h203l-215 -1192h-258l-195 926h-6l-193 -928h-258l-214 1194h203l146 -1031l235 1031h170l235 -1035z" />
    <glyph glyph-name="wgrave" unicode="&#x1e81;" horiz-adv-x="1419" 
d="M789 1330h-156l-268 276h224zM1176 1192h203l-215 -1192h-258l-195 926h-6l-193 -928h-258l-214 1194h203l146 -1031l235 1031h170l235 -1035z" />
    <glyph glyph-name="x" unicode="x" horiz-adv-x="891" 
d="M17 0l320 600l-320 592h210l219 -454l220 454h209l-319 -592l319 -600h-209l-220 463l-219 -463h-210z" />
    <glyph glyph-name="y" unicode="y" horiz-adv-x="884" 
d="M666 1192h204l-300 -1192c-72 -280 -183 -411 -367 -411c-57 0 -108 9 -162 28l42 137c34 -11 62 -15 118 -15c117 0 168 111 197 261h-83l-301 1192h207l132 -617l91 -435l90 437z" />
    <glyph glyph-name="yacute" unicode="&#xfd;" horiz-adv-x="884" 
d="M795 1606l-280 -273h-145l203 273h222zM666 1192h204l-300 -1192c-72 -280 -183 -411 -367 -411c-57 0 -108 9 -162 28l42 137c34 -11 62 -15 118 -15c117 0 168 111 197 261h-83l-301 1192h207l132 -617l91 -435l90 437z" />
    <glyph glyph-name="ycircumflex" unicode="&#x177;" horiz-adv-x="884" 
d="M442 1498l-153 -170h-153l199 278h215l199 -278h-154zM666 1192h204l-300 -1192c-72 -280 -183 -411 -367 -411c-57 0 -108 9 -162 28l42 137c34 -11 62 -15 118 -15c117 0 168 111 197 261h-83l-301 1192h207l132 -617l91 -435l90 437z" />
    <glyph glyph-name="ydieresis" unicode="&#xff;" horiz-adv-x="884" 
d="M372 1606v-228h-172v228h172zM687 1606v-228h-170v228h170zM666 1192h204l-300 -1192c-72 -280 -183 -411 -367 -411c-57 0 -108 9 -162 28l42 137c34 -11 62 -15 118 -15c117 0 168 111 197 261h-83l-301 1192h207l132 -617l91 -435l90 437z" />
    <glyph glyph-name="ygrave" unicode="&#x1ef3;" horiz-adv-x="884" 
d="M521 1330h-156l-268 276h224zM666 1192h204l-300 -1192c-72 -280 -183 -411 -367 -411c-57 0 -108 9 -162 28l42 137c34 -11 62 -15 118 -15c117 0 168 111 197 261h-83l-301 1192h207l132 -617l91 -435l90 437z" />
    <glyph glyph-name="z" unicode="z" horiz-adv-x="832" 
d="M789 1192v-158l-530 -877h525v-157h-746v144l540 893h-525v155h736z" />
    <glyph glyph-name="zacute" unicode="&#x17a;" horiz-adv-x="832" 
d="M769 1606l-280 -273h-145l203 273h222zM789 1192v-158l-530 -877h525v-157h-746v144l540 893h-525v155h736z" />
    <glyph glyph-name="zcaron" unicode="&#x17e;" horiz-adv-x="832" 
d="M524 1329h-215l-199 277h153l153 -169l153 169h154zM789 1192v-158l-530 -877h525v-157h-746v144l540 893h-525v155h736z" />
    <glyph glyph-name="zdotaccent" unicode="&#x17c;" horiz-adv-x="832" 
d="M514 1606v-228h-195v228h195zM789 1192v-158l-530 -877h525v-157h-746v144l540 893h-525v155h736z" />
    <glyph glyph-name="f_t" horiz-adv-x="1262" 
d="M1182 1048h-244v-689c0 -150 33 -202 140 -202h85v-157h-142c-197 0 -276 103 -276 317v731h-318v-1048h-194v1048h-163v144h164v75c0 205 103 339 283 339h140v-151h-101c-83 0 -132 -70 -132 -178v-85h328l34 274h152v-274h244v-144z" />
    <glyph glyph-name="t_t" horiz-adv-x="1293" 
d="M1210 1048h-244v-689c0 -150 32 -202 139 -202h86v-157h-142c-198 0 -276 103 -276 317v731h-360v-689c0 -150 33 -202 140 -202h86v-157h-143c-197 0 -276 103 -276 317v731h-139v144h146l35 274h151v-274h366l35 274h152v-274h244v-144z" />
    <glyph glyph-name="ordfeminine" unicode="&#xaa;" horiz-adv-x="741" 
d="M353 1670c154 0 268 -83 268 -253v-577h-114l-6 128h-10c-44 -93 -135 -146 -214 -146c-127 0 -211 90 -211 208s49 190 139 246c74 46 175 79 292 94l1 35c3 110 -47 154 -140 154c-89 0 -142 -46 -179 -123l-100 58c54 119 148 176 274 176zM309 936
c92 1 151 74 188 151v180c-83 -9 -163 -33 -218 -74c-49 -36 -80 -85 -80 -145c0 -70 49 -114 110 -112z" />
    <glyph glyph-name="ordmasculine" unicode="&#xba;" horiz-adv-x="912" 
d="M459 812c-191 0 -321 185 -321 412c0 225 130 410 321 410c185 0 314 -185 314 -410c0 -227 -129 -412 -314 -412zM459 934c124 0 177 136 177 290c0 151 -53 289 -177 289c-133 0 -184 -138 -184 -289c0 -154 51 -290 184 -290z" />
    <glyph glyph-name="pi" unicode="&#x3c0;" horiz-adv-x="966" 
d="M785 -23c-123 0 -199 128 -199 257v734h-245v-968h-164v968h-145v168h866v-168h-148l-1 -715c0 -52 20 -120 73 -120c14 0 32 6 50 18l55 -122c-58 -41 -105 -52 -142 -52z" />
    <glyph glyph-name="zero" unicode="0" horiz-adv-x="1038" 
d="M527 -23c-311 0 -463 272 -463 826s147 826 449 826c310 0 461 -273 461 -830c0 -552 -146 -822 -447 -822zM520 157c165 0 247 203 247 648c0 440 -84 640 -252 640c-172 0 -255 -200 -255 -642c0 -446 86 -646 260 -646z" />
    <glyph glyph-name="one" unicode="1" horiz-adv-x="1038" 
d="M481 0v1386l-297 -210v202l320 228h177v-1606h-200z" />
    <glyph glyph-name="two" unicode="2" horiz-adv-x="1038" 
d="M307 170h638v-170h-854v187c392 418 632 663 632 983c0 173 -67 288 -219 288c-174 0 -245 -146 -233 -375l-191 14c-2 323 123 532 429 532c267 0 411 -194 411 -459c0 -298 -142 -521 -613 -1000z" />
    <glyph glyph-name="three" unicode="3" horiz-adv-x="1038" 
d="M502 -23c-255 0 -450 159 -450 478l186 18c1 -213 124 -329 264 -329s268 110 268 315c0 208 -117 301 -256 301h-87v178h86c115 0 194 91 194 257c0 165 -95 264 -224 264s-223 -102 -224 -276l-184 21c0 268 167 425 408 425c237 0 406 -154 406 -421
c0 -177 -84 -305 -177 -338v-18c135 -31 241 -161 245 -390c0 -325 -198 -485 -455 -485z" />
    <glyph glyph-name="four" unicode="4" horiz-adv-x="1038" 
d="M807 591h159v-172h-159v-419h-190v419h-579v184l566 1003h203v-1015zM215 591h402l2 740z" />
    <glyph glyph-name="five" unicode="5" horiz-adv-x="1038" 
d="M568 1051c268 0 400 -214 400 -528c0 -316 -139 -546 -450 -546c-253 0 -412 180 -441 447l185 57c12 -199 100 -338 259 -338c184 0 247 161 247 383c0 215 -65 366 -247 366c-91 0 -183 -72 -226 -170l-181 34l106 850h691v-172h-536l-60 -501c66 73 168 118 253 118z
" />
    <glyph glyph-name="six" unicode="6" horiz-adv-x="1038" 
d="M533 -23c-257 0 -448 202 -450 718c0 354 37 934 479 934c216 0 340 -133 407 -334l-152 -74c-42 136 -117 230 -250 230c-246 0 -292 -377 -294 -572c75 104 171 157 291 157c243 0 414 -207 414 -523c0 -293 -189 -536 -445 -536zM531 154c149 0 254 148 254 360
s-105 356 -254 356c-151 0 -251 -139 -251 -351s100 -365 251 -365z" />
    <glyph glyph-name="seven" unicode="7" horiz-adv-x="1038" 
d="M305 0c30 433 122 992 424 1425v9h-621v172h813v-185c-318 -443 -377 -962 -404 -1421h-212z" />
    <glyph glyph-name="eight" unicode="8" horiz-adv-x="1038" 
d="M521 -23c-284 0 -459 190 -459 462c0 201 101 378 256 421v10c-112 47 -191 193 -191 350c0 236 145 409 391 409c248 0 392 -173 392 -409c0 -160 -79 -306 -191 -350v-10c156 -48 256 -224 256 -421c0 -272 -172 -462 -454 -462zM522 931c118 0 206 111 206 267
c0 155 -68 267 -206 267c-139 0 -207 -112 -207 -263c0 -157 87 -271 207 -271zM517 140c172 0 261 135 261 322c0 184 -108 319 -261 319c-151 0 -259 -135 -259 -319c0 -187 88 -322 259 -322z" />
    <glyph glyph-name="nine" unicode="9" horiz-adv-x="1038" 
d="M477 -23c-217 0 -341 133 -408 334l152 74c43 -136 117 -230 251 -230c246 0 291 378 293 572c-74 -104 -170 -157 -291 -157c-243 0 -414 207 -414 523c0 293 189 536 445 536c257 0 448 -202 450 -718c1 -354 -37 -934 -478 -934zM507 736c152 0 252 140 252 351
c0 212 -100 365 -252 365c-149 0 -253 -147 -253 -359s104 -357 253 -357z" />
    <glyph glyph-name="zero.lf" horiz-adv-x="1035" 
d="M525 -23c-311 0 -463 272 -463 826s148 826 449 826c311 0 461 -273 461 -830c0 -552 -145 -822 -447 -822zM518 157c165 0 247 203 247 648c0 440 -84 640 -252 640c-172 0 -255 -200 -255 -642c0 -446 86 -646 260 -646z" />
    <glyph glyph-name="one.lf" horiz-adv-x="981" 
d="M456 0v1386l-297 -210v202l320 228h177v-1606h-200z" />
    <glyph glyph-name="two.lf" horiz-adv-x="1024" 
d="M302 170h637v-170h-854v187c392 418 633 663 633 983c0 173 -67 288 -220 288c-174 0 -245 -146 -233 -375l-191 14c-2 323 124 532 429 532c268 0 411 -194 411 -459c0 -298 -141 -521 -612 -1000z" />
    <glyph glyph-name="three.lf" horiz-adv-x="1024" 
d="M496 -23c-255 0 -451 159 -451 478l187 18c0 -213 123 -329 264 -329c139 0 267 110 267 315c0 208 -116 301 -255 301h-87v178h86c115 0 193 91 193 257c0 165 -94 264 -223 264c-130 0 -223 -102 -225 -276l-183 21c0 268 167 425 408 425c237 0 406 -154 406 -421
c0 -177 -84 -305 -177 -338v-18c135 -31 241 -161 245 -390c0 -325 -198 -485 -455 -485z" />
    <glyph glyph-name="four.lf" horiz-adv-x="1036" 
d="M809 591h159v-172h-159v-419h-190v419h-579v184l566 1003h203v-1015zM217 591h402l2 740z" />
    <glyph glyph-name="five.lf" horiz-adv-x="1028" 
d="M562 1051c269 0 400 -214 400 -528c0 -316 -139 -546 -450 -546c-253 0 -411 180 -441 447l185 57c12 -199 100 -338 260 -338c184 0 246 161 246 383c0 215 -64 366 -246 366c-92 0 -184 -72 -226 -170l-181 34l105 850h691v-172h-535l-60 -501c65 73 167 118 252 118z
" />
    <glyph glyph-name="six.lf" horiz-adv-x="1029" 
d="M528 -23c-257 0 -448 202 -450 718c0 354 37 934 479 934c216 0 340 -133 407 -334l-152 -74c-42 136 -117 230 -250 230c-246 0 -292 -377 -294 -572c75 104 171 157 291 157c243 0 414 -207 414 -523c0 -293 -189 -536 -445 -536zM526 154c149 0 254 148 254 360
s-105 356 -254 356c-151 0 -251 -139 -251 -351s100 -365 251 -365z" />
    <glyph glyph-name="seven.lf" horiz-adv-x="1018" 
d="M295 0c30 433 122 992 424 1425v9h-621v172h813v-185c-318 -443 -377 -962 -404 -1421h-212z" />
    <glyph glyph-name="eight.lf" horiz-adv-x="1032" 
d="M518 -23c-285 0 -459 190 -459 462c0 201 101 378 256 421v10c-112 47 -191 193 -191 350c0 236 145 409 391 409c247 0 392 -173 392 -409c0 -160 -79 -306 -191 -350v-10c155 -48 256 -224 256 -421c0 -272 -173 -462 -454 -462zM519 931c118 0 205 111 205 267
c0 155 -67 267 -205 267c-139 0 -207 -112 -207 -263c0 -157 87 -271 207 -271zM513 140c173 0 262 135 262 322c0 184 -108 319 -262 319c-150 0 -259 -135 -259 -319c0 -187 89 -322 259 -322z" />
    <glyph glyph-name="nine.lf" horiz-adv-x="1029" 
d="M472 -23c-216 0 -340 133 -407 334l152 74c42 -136 117 -230 250 -230c246 0 292 378 293 572c-74 -104 -170 -157 -290 -157c-243 0 -414 207 -414 523c0 293 189 536 444 536c258 0 449 -202 450 -718c1 -354 -37 -934 -478 -934zM502 736c152 0 252 140 252 351
c0 212 -100 365 -252 365c-148 0 -253 -147 -253 -359s105 -357 253 -357z" />
    <glyph glyph-name="fraction" unicode="&#x2044;" horiz-adv-x="331" 
d="M-282 0l706 1606h189l-709 -1606h-186z" />
    <glyph glyph-name="period" unicode="." horiz-adv-x="636" 
d="M193 0v259h250v-259h-250z" />
    <glyph glyph-name="comma" unicode="," horiz-adv-x="586" 
d="M177 -362l98 362h-95v259h250v-259l-143 -362h-110z" />
    <glyph glyph-name="colon" unicode=":" horiz-adv-x="648" 
d="M200 860v260h250v-260h-250zM198 0v259h251v-259h-251z" />
    <glyph glyph-name="semicolon" unicode=";" horiz-adv-x="623" 
d="M192 860v260h250v-260h-250zM189 -362l98 362h-95v259h250v-259l-143 -362h-110z" />
    <glyph glyph-name="ellipsis" unicode="&#x2026;" horiz-adv-x="1756" 
d="M193 0v259h250v-259h-250zM752 0v259h250v-259h-250zM1313 0v259h251v-259h-251z" />
    <glyph glyph-name="exclam" unicode="!" horiz-adv-x="581" 
d="M218 444l-26 1162h197l-26 -1162h-145zM180 0v236h221v-236h-221z" />
    <glyph glyph-name="exclamdown" unicode="&#xa1;" horiz-adv-x="581" 
d="M180 955v237h220v-237h-220zM192 -440l25 1187h146l25 -1187h-196z" />
    <glyph glyph-name="question" unicode="?" horiz-adv-x="856" 
d="M339 440v239c0 342 287 223 287 540c0 164 -87 244 -203 244c-118 0 -211 -97 -212 -257h-167c2 241 138 423 370 423c211 0 379 -137 379 -413c0 -384 -292 -290 -292 -539v-237h-162zM316 0v236h214v-236h-214z" />
    <glyph glyph-name="questiondown" unicode="&#xbf;" horiz-adv-x="855" 
d="M326 956v236h214v-236h-214zM442 -437c-211 0 -379 137 -379 413c0 384 292 290 292 539v237h163v-239c0 -342 -288 -223 -288 -540c0 -164 87 -244 203 -244c118 0 211 97 212 257h167c-2 -241 -138 -423 -370 -423z" />
    <glyph glyph-name="periodcentered" unicode="&#xb7;" horiz-adv-x="615" 
d="M307 614c-90 0 -157 67 -157 160c0 90 67 155 157 155c92 0 158 -65 158 -155c0 -93 -66 -160 -158 -160z" />
    <glyph glyph-name="bullet" unicode="&#x2022;" horiz-adv-x="859" 
d="M427 302c-165 0 -305 143 -305 310c0 166 140 305 305 305c170 0 309 -139 309 -305c0 -167 -139 -310 -309 -310z" />
    <glyph glyph-name="asterisk" unicode="*" horiz-adv-x="809" 
d="M342 1029l22 217l-176 -127l-65 108l196 90l-196 91l65 110l176 -129l-22 217h125l-22 -217l177 129l62 -110l-194 -91l194 -90l-62 -108l-177 127l22 -217h-125z" />
    <glyph glyph-name="numbersign" unicode="#" horiz-adv-x="1230" 
d="M199 0l80 490h-211v142h237l55 366h-218v137h244l80 471h142l-74 -455h273l76 455h144l-74 -467h211v-141h-239l-53 -366h218v-137h-247l-79 -495h-144l78 479h-275l-76 -479h-148zM452 632h272l56 366h-275z" />
    <glyph glyph-name="slash" unicode="/" horiz-adv-x="714" 
d="M-18 -177l567 1782h183l-567 -1782h-183z" />
    <glyph glyph-name="backslash" unicode="\" horiz-adv-x="714" 
d="M549 -177l-567 1782h183l567 -1782h-183z" />
    <glyph glyph-name="twodotenleader" unicode="&#x2025;" horiz-adv-x="1194" 
d="M193 0v259h250v-259h-250zM751 0v259h250v-259h-250z" />
    <glyph glyph-name="parenleft" unicode="(" horiz-adv-x="568" 
d="M358 -320c-172 231 -269 684 -269 1022c0 335 83 745 267 1006h188c-178 -291 -273 -642 -273 -1006c0 -382 90 -730 272 -1022h-185z" />
    <glyph glyph-name="parenright" unicode=")" horiz-adv-x="568" 
d="M25 -320c182 292 272 640 272 1022c0 364 -95 715 -274 1006h189c183 -261 267 -671 267 -1006c0 -338 -98 -791 -269 -1022h-185z" />
    <glyph glyph-name="braceleft" unicode="{" horiz-adv-x="588" 
d="M465 -317c-159 0 -286 127 -286 283v531c0 135 -61 142 -137 144v150c79 -1 137 10 137 143v533c0 159 127 286 286 286h86v-178h-73c-72 0 -125 -52 -125 -120v-515c0 -104 -4 -175 -94 -226c90 -43 94 -117 94 -225v-510c0 -69 53 -120 125 -120h73v-176h-86z" />
    <glyph glyph-name="braceright" unicode="}" horiz-adv-x="588" 
d="M37 -317v176h73c72 0 125 51 125 120v510c0 108 4 182 94 225c-90 51 -94 122 -94 226v515c0 68 -53 120 -125 120h-73v178h86c159 0 286 -127 286 -286v-533c0 -133 58 -144 137 -143v-150c-76 -2 -137 -9 -137 -144v-531c0 -156 -127 -283 -286 -283h-86z" />
    <glyph glyph-name="bracketleft" unicode="[" horiz-adv-x="619" 
d="M171 -321v2030h423v-145h-268v-1737h268v-148h-423z" />
    <glyph glyph-name="bracketright" unicode="]" horiz-adv-x="619" 
d="M25 -321v148h268v1737h-268v145h422v-2030h-422z" />
    <glyph glyph-name="hyphen" unicode="-" horiz-adv-x="1192" 
d="M131 642v159h930v-159h-930z" />
    <glyph glyph-name="endash" unicode="&#x2013;" horiz-adv-x="1392" 
d="M114 642v159h1163v-159h-1163z" />
    <glyph glyph-name="emdash" unicode="&#x2014;" horiz-adv-x="2283" 
d="M0 642v159h2283v-159h-2283z" />
    <glyph glyph-name="underscore" unicode="_" horiz-adv-x="955" 
d="M0 -145v145h955v-145h-955z" />
    <glyph glyph-name="quotesinglbase" unicode="&#x201a;" horiz-adv-x="529" 
d="M149 -362l97 362h-94v259h250v-259l-143 -362h-110z" />
    <glyph glyph-name="quotedblbase" unicode="&#x201e;" horiz-adv-x="924" 
d="M149 -362l97 362h-94v259h250v-259l-143 -362h-110zM544 -362l98 362h-95v259h250v-259l-143 -362h-110z" />
    <glyph glyph-name="quotedblleft" unicode="&#x201c;" horiz-adv-x="897" 
d="M380 1606l-98 -362h95v-259h-250v259l143 362h110zM747 1606l-97 -362h95v-259h-251v259l143 362h110z" />
    <glyph glyph-name="quotedblright" unicode="&#x201d;" horiz-adv-x="896" 
d="M149 984l97 362h-95v259h251v-259l-143 -362h-110zM516 984l98 362h-95v259h250v-259l-143 -362h-110z" />
    <glyph glyph-name="quoteleft" unicode="&#x2018;" horiz-adv-x="530" 
d="M127 985v259l143 362h110l-98 -362h95v-259h-250z" />
    <glyph glyph-name="quoteright" unicode="&#x2019;" horiz-adv-x="529" 
d="M149 984l97 362h-95v259h251v-259l-143 -362h-110z" />
    <glyph glyph-name="guillemotleft" unicode="&#xab;" horiz-adv-x="1017" 
d="M378 128l-354 428l354 428h193l-354 -428l354 -428h-193zM780 128l-354 428l354 428h194l-354 -428l354 -428h-194z" />
    <glyph glyph-name="guillemotright" unicode="&#xbb;" horiz-adv-x="1017" 
d="M44 128l354 428l-354 428h193l354 -428l-354 -428h-193zM446 128l354 428l-354 428h193l354 -428l-354 -428h-193z" />
    <glyph glyph-name="guilsinglleft" unicode="&#x2039;" horiz-adv-x="615" 
d="M378 128l-354 428l354 428h193l-354 -428l354 -428h-193z" />
    <glyph glyph-name="guilsinglright" unicode="&#x203a;" horiz-adv-x="615" 
d="M44 128l354 428l-354 428h193l354 -428l-354 -428h-193z" />
    <glyph glyph-name="quotedbl" unicode="&#x22;" horiz-adv-x="819" 
d="M563 1606v-623h-309v623h309z" />
    <glyph glyph-name="quotesingle" unicode="'" horiz-adv-x="501" 
d="M168 1015v623h165v-623h-165z" />
    <glyph glyph-name="space" unicode=" " horiz-adv-x="440" 
 />
    <glyph glyph-name="cent" unicode="&#xa2;" horiz-adv-x="1059" 
d="M573 136c138 0 201 92 228 221l157 -47c-49 -200 -152 -315 -335 -333v-192h-122v194c-270 38 -378 311 -378 614c0 310 108 580 378 617v196h122v-194c186 -18 287 -135 341 -326l-164 -55c-27 140 -94 225 -227 225c-208 0 -257 -244 -257 -464
c0 -217 49 -456 257 -456z" />
    <glyph glyph-name="currency" unicode="&#xa4;" horiz-adv-x="1408" 
d="M282 240l-108 114l117 116c-69 88 -102 197 -102 303s33 214 102 303l-117 116l108 114l117 -122c91 68 197 104 304 104c109 0 215 -36 306 -104l116 122l109 -114l-117 -116c68 -89 102 -197 102 -303s-34 -215 -102 -303l117 -116l-109 -114l-116 121
c-91 -68 -197 -103 -306 -103c-107 0 -213 35 -304 103zM703 415c92 0 184 36 255 106c70 71 103 160 103 252c0 91 -33 180 -103 252c-71 69 -163 106 -255 106c-90 0 -183 -37 -253 -106c-71 -72 -104 -161 -104 -252c0 -92 33 -181 104 -252c70 -70 163 -106 253 -106z
" />
    <glyph glyph-name="dollar" unicode="$" horiz-adv-x="1111" 
d="M1001 419c0 -239 -134 -413 -371 -436v-169h-97v167c-199 14 -387 131 -444 430l174 60c44 -228 173 -314 315 -314c150 0 225 92 225 258c0 196 -129 278 -281 362c-170 95 -366 187 -366 456c0 226 124 384 377 394v166h97v-170c169 -23 313 -133 351 -364l-157 -50
c-31 164 -112 245 -265 245c-150 0 -212 -105 -212 -217c0 -158 148 -224 301 -313c166 -95 353 -211 353 -505z" />
    <glyph glyph-name="Euro" unicode="&#x20ac;" horiz-adv-x="1446" 
d="M836 161c162 0 288 128 340 318l172 -65c-67 -267 -270 -437 -515 -437c-328 0 -526 243 -573 635h-166v131h156c-1 20 -1 40 -1 60c0 24 0 48 1 72h-156v131h167c50 386 248 625 571 625c244 0 447 -167 516 -435l-172 -65c-46 190 -164 316 -342 316
c-202 0 -333 -166 -374 -441h544v-131h-556c-1 -20 -1 -40 -1 -61c0 -24 1 -48 2 -71h555v-131h-543c42 -280 176 -451 375 -451z" />
    <glyph glyph-name="florin" unicode="&#x192;" horiz-adv-x="781" 
d="M593 1455c-83 0 -132 -70 -132 -178v-85h234v-144h-230v-1048c-1 -297 -158 -416 -358 -441v170c98 22 164 90 164 271v1048h-164v144h164v75c0 205 104 339 283 339h141v-151h-102z" />
    <glyph glyph-name="sterling" unicode="&#xa3;" horiz-adv-x="1216" 
d="M450 645v-470h665v-175h-995v147l145 28v470h-145v155h145v294c0 321 138 535 438 535c226 0 361 -149 412 -370l-171 -72c-23 148 -86 257 -241 257c-196 0 -253 -138 -253 -354v-290h340v-155h-340z" />
    <glyph glyph-name="yen" unicode="&#xa5;" horiz-adv-x="1263" 
d="M1186 1606l-403 -875h270v-145h-323v-131h323v-145h-323v-310h-199v310h-320v145h320v131h-320v145h267l-401 875h226l166 -410l163 -408l162 408l164 410h228z" />
    <glyph glyph-name="plus" unicode="+" horiz-adv-x="1358" 
d="M600 109v532h-532v161h532v532h158v-532h532v-161h-532v-532h-158z" />
    <glyph glyph-name="minus" unicode="&#x2212;" horiz-adv-x="1401" 
d="M203 642v159h995v-159h-995z" />
    <glyph glyph-name="multiply" unicode="&#xd7;" horiz-adv-x="1155" 
d="M200 202l-112 112l376 377l-376 375l113 115l377 -377l376 377l112 -113l-376 -376l376 -376l-114 -113l-376 375z" />
    <glyph glyph-name="divide" unicode="&#xf7;" horiz-adv-x="1150" 
d="M575 1006c-66 0 -123 55 -123 126c0 68 57 124 123 124c65 0 124 -56 124 -124c0 -71 -59 -126 -124 -126zM77 643v160h995v-160h-995zM575 191c-66 0 -123 54 -123 122c0 69 57 125 123 125c65 0 124 -56 124 -125c0 -68 -59 -122 -124 -122z" />
    <glyph glyph-name="equal" unicode="=" horiz-adv-x="1471" 
d="M211 857v161h1048v-161h-1048zM211 423v161h1048v-161h-1048z" />
    <glyph glyph-name="notequal" unicode="&#x2260;" horiz-adv-x="1488" 
d="M1393 880h-533l-145 -273h678v-161h-763l-263 -495h-186l264 495h-339v161h425l146 273h-571v161h657l276 516h181l-274 -516h447v-161z" />
    <glyph glyph-name="greater" unicode="&#x3e;" horiz-adv-x="1441" 
d="M94 1545l1285 -644v-191l-1285 -649v180l1117 565l-1117 562v177z" />
    <glyph glyph-name="less" unicode="&#x3c;" horiz-adv-x="1441" 
d="M1347 1545v-177l-1117 -562l1117 -565v-180l-1285 649v191z" />
    <glyph glyph-name="greaterequal" unicode="&#x2265;" horiz-adv-x="1490" 
d="M114 1633l1284 -597v-191l-1284 -602v180l1111 519l-1111 513v178zM114 0v141h1284v-141h-1284z" />
    <glyph glyph-name="lessequal" unicode="&#x2264;" horiz-adv-x="1490" 
d="M1376 1633v-178l-1111 -513l1111 -519v-180l-1285 602v191zM91 0v141h1285v-141h-1285z" />
    <glyph glyph-name="plusminus" unicode="&#xb1;" horiz-adv-x="1370" 
d="M612 263v517h-519v145h519v516h145v-516h519v-145h-519v-517h-145zM95 -1v145h1181v-145h-1181z" />
    <glyph glyph-name="approxequal" unicode="&#x2248;" horiz-adv-x="1210" 
d="M787 683c-187 0 -250 190 -386 190c-78 0 -108 -66 -105 -163h-145c0 183 79 313 238 313c218 0 261 -187 394 -187c83 0 115 63 115 181h153c0 -213 -97 -334 -264 -334zM787 162c-187 0 -250 190 -386 190c-78 0 -108 -66 -105 -163h-145c0 184 79 313 238 313
c218 0 261 -187 394 -187c83 0 115 63 115 181h153c0 -212 -97 -334 -264 -334z" />
    <glyph glyph-name="asciitilde" unicode="~" horiz-adv-x="1217" 
d="M796 424c-186 0 -250 190 -386 190c-77 0 -107 -66 -105 -163h-145c0 184 79 313 239 313c218 0 260 -187 393 -187c84 0 115 63 115 181h153c0 -212 -96 -334 -264 -334z" />
    <glyph glyph-name="logicalnot" unicode="&#xac;" horiz-adv-x="1321" 
d="M930 257v476h-834v172h1014v-648h-180z" />
    <glyph glyph-name="infinity" unicode="&#x221e;" horiz-adv-x="1789" 
d="M469 372c-185 0 -332 138 -332 347c0 210 147 348 332 348c135 0 287 -86 424 -235c137 149 291 235 424 235c188 0 335 -138 335 -348c0 -209 -147 -347 -335 -347c-133 0 -287 86 -424 235c-137 -149 -289 -235 -424 -235zM480 521c92 0 200 73 312 198
c-112 125 -220 198 -312 198c-104 0 -192 -71 -192 -198c0 -126 88 -198 192 -198zM1309 521c104 0 192 72 192 198c0 127 -88 198 -192 198c-92 0 -201 -73 -314 -198c113 -125 222 -198 314 -198z" />
    <glyph glyph-name="integral" unicode="&#x222b;" horiz-adv-x="830" 
d="M41 -519v169c212 0 292 100 292 352v1308c0 201 115 334 259 334c70 0 142 -31 205 -92l-97 -125c-31 36 -64 52 -95 52c-57 0 -110 -58 -110 -168v-1309c0 -344 -179 -521 -454 -521z" />
    <glyph glyph-name="uni2126" unicode="&#x2126;" horiz-adv-x="1531" 
d="M146 0v166h299c-188 128 -294 370 -294 662c0 485 231 771 614 771c386 0 614 -291 614 -775c0 -293 -101 -533 -280 -657h285v-167h-491v166c197 82 315 322 315 656c0 388 -166 608 -443 608s-443 -219 -443 -601c0 -301 116 -542 313 -663v-166h-489z" />
    <glyph glyph-name="product" unicode="&#x220f;" horiz-adv-x="1227" 
d="M228 0v1437h-82v169h936v-169h-83v-1437h-164v1437h-443v-1437h-164z" />
    <glyph glyph-name="summation" unicode="&#x2211;" horiz-adv-x="1123" 
d="M77 0v84l522 719l-522 721v82h960v-169h-666l461 -634l-461 -634h666v-169h-960z" />
    <glyph glyph-name="uni00B5" unicode="&#xb5;" horiz-adv-x="1179" 
d="M214 -303v1439h185v-674c0 -154 33 -312 164 -312c136 0 251 160 251 340v646h183v-1136h-183v191c-36 -98 -139 -217 -261 -217c-63 0 -114 22 -156 55l-17 -332h-166z" />
    <glyph glyph-name="partialdiff" unicode="&#x2202;" horiz-adv-x="1175" 
d="M512 -14c-260 0 -409 207 -409 517c0 373 219 681 505 681c126 0 217 -52 267 -168c-17 270 -105 431 -260 441c-82 10 -171 -17 -235 -152l-102 76c60 157 179 243 326 243c309 0 438 -307 438 -747c0 -526 -186 -891 -530 -891zM511 159c204 0 332 255 332 526
c0 208 -75 334 -215 334c-210 0 -341 -276 -341 -527c0 -195 78 -333 224 -333z" />
    <glyph glyph-name="percent" unicode="%" horiz-adv-x="1539" 
d="M380 897c-233 0 -300 220 -300 365c0 149 65 369 293 369c205 0 299 -195 299 -369s-92 -365 -292 -365zM238 2l860 1602h187l-857 -1602h-190zM375 1045c93 0 138 116 138 219c0 108 -46 215 -140 215s-139 -109 -139 -217c0 -104 45 -217 141 -217zM1169 -3
c-233 0 -300 220 -300 366c0 149 65 372 293 372c206 0 299 -195 299 -372c0 -174 -92 -366 -292 -366zM1166 146c92 0 136 114 136 220c0 110 -44 219 -140 219c-94 0 -138 -113 -138 -222c0 -105 43 -217 142 -217z" />
    <glyph glyph-name="perthousand" unicode="&#x2030;" horiz-adv-x="2197" 
d="M380 897c-233 0 -300 220 -300 365c0 149 65 369 293 369c205 0 299 -195 299 -369s-92 -365 -292 -365zM238 2l860 1602h187l-857 -1602h-190zM375 1045c93 0 138 116 138 219c0 108 -46 215 -140 215s-139 -109 -139 -217c0 -104 45 -217 141 -217zM1169 -3
c-233 0 -300 220 -300 366c0 149 65 372 293 372c206 0 299 -195 299 -372c0 -174 -92 -366 -292 -366zM1828 -3c-233 0 -300 220 -300 366c0 149 65 372 293 372c206 0 299 -195 299 -372c0 -174 -92 -366 -292 -366zM1166 146c92 0 136 114 136 220
c0 110 -44 219 -140 219c-94 0 -138 -113 -138 -222c0 -105 43 -217 142 -217zM1825 146c92 0 136 114 136 220c0 110 -44 219 -140 219c-94 0 -138 -113 -138 -222c0 -105 43 -217 142 -217z" />
    <glyph glyph-name="arrowright" unicode="&#x2192;" horiz-adv-x="1987" 
d="M1058 141v172l490 329h-1478v159h1479l-491 331v172l881 -578z" />
    <glyph glyph-name="arrowleft" unicode="&#x2190;" horiz-adv-x="1982" 
d="M1913 801v-159h-1477l490 -329v-172l-883 585l883 578v-172l-490 -331h1477z" />
    <glyph glyph-name="lozenge" unicode="&#x25ca;" horiz-adv-x="1014" 
d="M420 0l-349 815l349 814h177l345 -814l-345 -815h-177zM506 198l246 617l-246 616l-244 -616z" />
    <glyph glyph-name="at" unicode="@" horiz-adv-x="1861" 
d="M949 -255c-457 0 -847 323 -847 841c0 489 378 850 872 850c424 0 788 -259 788 -731c0 -379 -207 -547 -420 -547c-130 0 -201 78 -209 172h-5c-53 -86 -163 -168 -296 -168c-193 0 -315 145 -315 357c0 270 185 506 441 506c122 0 212 -58 250 -144h4l24 117h124
c-27 -159 -63 -352 -88 -476c-30 -146 -20 -242 98 -242c135 0 259 133 259 410c0 387 -265 621 -657 621c-430 0 -722 -303 -722 -728c0 -453 333 -713 713 -713c246 0 432 68 597 209l76 -95c-181 -160 -415 -239 -687 -239zM859 291c185 0 280 194 287 343
c11 147 -35 264 -188 264c-175 0 -284 -197 -284 -385c0 -104 47 -222 185 -222z" />
    <glyph glyph-name="ampersand" unicode="&#x26;" horiz-adv-x="1340" 
d="M1274 0h-233l-145 189c-125 -166 -238 -218 -390 -218c-230 0 -414 160 -414 444c0 222 115 368 294 458c-125 187 -153 278 -153 400c0 206 130 349 347 349c213 0 337 -142 337 -356c0 -183 -86 -321 -284 -440l257 -336c49 92 103 207 165 351h192
c-94 -208 -174 -369 -246 -493zM580 1466c-99 0 -157 -84 -157 -205c0 -86 26 -164 119 -305c137 92 191 186 191 313c0 116 -57 197 -153 197zM518 136c91 0 171 36 274 189l-321 426c-113 -76 -181 -170 -181 -328c0 -169 111 -287 228 -287z" />
    <glyph glyph-name="paragraph" unicode="&#xb6;" horiz-adv-x="1121" 
d="M482 -326v1033c-212 0 -412 166 -412 450s200 449 412 449h128v-1932h-128zM776 -326v1932h131v-1932h-131z" />
    <glyph glyph-name="section" unicode="&#xa7;" horiz-adv-x="1170" 
d="M590 -21c-223 0 -414 98 -481 327l194 60c42 -142 141 -201 293 -201c117 0 245 30 245 168c0 249 -680 47 -680 492c0 94 42 180 113 241c-75 54 -111 137 -111 223c0 223 198 340 412 340c208 0 373 -102 435 -303l-189 -48c-34 118 -123 169 -248 169
c-111 0 -218 -50 -218 -169c0 -237 680 -36 680 -495c0 -88 -34 -174 -107 -236c75 -56 107 -135 107 -221c0 -250 -219 -347 -445 -347zM732 633c76 34 108 94 101 168c-8 151 -246 169 -367 198c-68 -30 -111 -93 -107 -169c6 -144 251 -166 373 -197z" />
    <glyph glyph-name="copyright" unicode="&#xa9;" horiz-adv-x="1902" 
d="M950 -60c-468 0 -851 387 -851 864c0 476 383 863 851 863c470 0 855 -387 855 -863c0 -477 -385 -864 -855 -864zM952 61c401 0 732 340 732 743s-331 742 -732 742c-396 0 -731 -339 -731 -742s335 -743 731 -743zM973 274c-275 0 -384 251 -384 534
c0 290 109 538 384 538c191 0 291 -104 342 -285l-142 -47c-24 121 -81 194 -196 194c-179 0 -222 -210 -222 -400c0 -188 43 -394 222 -394c119 0 174 78 198 190l135 -40c-47 -189 -148 -290 -337 -290z" />
    <glyph glyph-name="registered" unicode="&#xae;" horiz-adv-x="1424" 
d="M711 400c-333 0 -601 275 -601 615c0 339 268 614 601 614s602 -275 602 -614c0 -340 -269 -615 -602 -615zM711 500c276 0 511 236 511 515s-235 517 -511 517c-277 0 -509 -238 -509 -517s232 -515 509 -515zM507 694v634h246c143 0 218 -70 218 -186
c0 -107 -59 -158 -126 -179l162 -269h-138l-140 257h-102v-257h-120zM618 1052h135c68 0 109 27 109 90c0 61 -41 89 -109 89h-135v-179z" />
    <glyph glyph-name="trademark" unicode="&#x2122;" horiz-adv-x="1505" 
d="M92 1498v108h492v-108h-184v-521h-123v521h-185zM1138 1606h155v-629h-119l3 444l-137 -444h-107l-142 449l3 -449h-119v629h160l122 -400l28 -113l27 106z" />
    <glyph glyph-name="degree" unicode="&#xb0;" horiz-adv-x="935" 
d="M467 942c-190 0 -330 144 -330 345c0 197 140 342 330 342c192 0 331 -145 331 -342c0 -201 -139 -345 -331 -345zM467 1083c111 0 191 85 191 204c0 118 -80 202 -191 202c-109 0 -187 -84 -187 -202c0 -119 78 -204 187 -204z" />
    <glyph glyph-name="bar" unicode="|" horiz-adv-x="570" 
d="M214 -177v1920h141v-1920h-141z" />
    <glyph glyph-name="brokenbar" unicode="&#xa6;" horiz-adv-x="588" 
d="M214 864v742h160v-742h-160zM214 -177v719h160v-719h-160z" />
    <glyph glyph-name="dagger" unicode="&#x2020;" horiz-adv-x="681" 
d="M258 -233v1200h-200v156h200v483h164v-483h203v-156h-203v-1200h-164z" />
    <glyph glyph-name="daggerdbl" unicode="&#x2021;" horiz-adv-x="747" 
d="M290 -233v484h-200v155h200v561h-200v156h200v483h164v-483h203v-156h-203v-561h203v-155h-203v-484h-164z" />
    <glyph glyph-name="asciicircum" unicode="^" horiz-adv-x="909" 
d="M86 608l308 998h121l308 -998h-184l-185 718l-183 -718h-185z" />
    <glyph glyph-name="uni0308" unicode="&#x308;" 
d="M-621 1378v228h172v-228h-172zM-304 1378v228h170v-228h-170z" />
    <glyph glyph-name="uni0307" unicode="&#x307;" 
d="M-329 1378v228h195v-228h-195z" />
    <glyph glyph-name="gravecomb" unicode="&#x300;" 
d="M-199 1330l-268 276h224l200 -276h-156z" />
    <glyph glyph-name="acutecomb" unicode="&#x301;" 
d="M-448 1333l203 273h222l-280 -273h-145z" />
    <glyph glyph-name="uni030B" unicode="&#x30b;" 
d="M-755 1330l190 276h196l-230 -276h-156zM-431 1330l189 276h215l-251 -276h-153z" />
    <glyph glyph-name="caroncomb.alt" 
d="M-352 985l98 362h-95v259h250v-259l-143 -362h-110z" />
    <glyph glyph-name="uni0302" unicode="&#x302;" 
d="M-656 1328l199 278h215l199 -278h-154l-153 170l-153 -170h-153z" />
    <glyph glyph-name="uni030C" unicode="&#x30c;" 
d="M-457 1329l-199 277h153l153 -169l153 169h154l-199 -277h-215z" />
    <glyph glyph-name="uni0306" unicode="&#x306;" 
d="M-363 1324c-165 0 -281 84 -281 282h134c0 -113 68 -158 147 -158s149 45 149 158h135c0 -198 -119 -282 -284 -282z" />
    <glyph glyph-name="uni030A" unicode="&#x30a;" 
d="M-301 1274c-129 0 -221 97 -221 230c0 131 92 226 221 226c127 0 219 -95 219 -226c0 -133 -92 -230 -219 -230zM-301 1380c69 0 116 51 116 122s-47 123 -116 123s-117 -52 -117 -123s48 -122 117 -122z" />
    <glyph glyph-name="tildecomb" unicode="&#x303;" 
d="M-283 1323c-146 0 -182 162 -274 162c-55 0 -84 -67 -82 -144h-117c0 159 60 266 181 266c151 0 184 -168 280 -168c58 0 82 66 82 167h118c0 -189 -72 -283 -188 -283z" />
    <glyph glyph-name="uni0304" unicode="&#x304;" 
d="M-647 1350v126h516v-126h-516z" />
    <glyph glyph-name="uni0312" unicode="&#x312;" 
d="M-411 1299l219 307h112l-117 -307h-214z" />
    <glyph glyph-name="uni0326" unicode="&#x326;" 
d="M-371 -504l116 344h215l-219 -344h-112z" />
    <glyph glyph-name="uni0327" unicode="&#x327;" 
d="M-257 -541c-88 0 -152 58 -183 133l91 62c12 -48 40 -81 86 -81c54 0 76 44 76 86c0 76 -69 123 -187 171l88 201l119 -4l-74 -145c103 -50 171 -113 171 -217c0 -109 -73 -206 -187 -206z" />
    <glyph glyph-name="uni0328" unicode="&#x328;" 
d="M-215 -512c-107 0 -197 88 -197 230c0 118 77 224 158 296l108 -14c-95 -81 -150 -165 -150 -258c0 -89 39 -131 85 -131c34 0 74 24 102 75l86 -69c-39 -77 -100 -129 -192 -129z" />
    <glyph glyph-name="uni0335" unicode="&#x335;" 
d="M-726 596v110h597v-110h-597z" />
    <glyph glyph-name="uni0336" unicode="&#x336;" 
d="M-1308 602v91h1181v-91h-1181z" />
    <glyph glyph-name="uni0337" unicode="&#x337;" 
d="M-514 273v185l475 423v-191z" />
    <glyph glyph-name="uni0338" unicode="&#x338;" 
d="M-860 212l-80 66l882 1099l81 -64z" />
    <glyph glyph-name="acute" unicode="&#xb4;" horiz-adv-x="489" 
d="M41 1333l203 273h222l-280 -273h-145z" />
    <glyph glyph-name="breve" unicode="&#x2d8;" horiz-adv-x="723" 
d="M360 1324c-165 0 -281 84 -281 282h134c0 -113 68 -158 147 -158s149 45 149 158h135c0 -198 -119 -282 -284 -282z" />
    <glyph glyph-name="caron" unicode="&#x2c7;" horiz-adv-x="699" 
d="M242 1329l-199 277h153l153 -169l153 169h154l-199 -277h-215z" />
    <glyph glyph-name="cedilla" unicode="&#xb8;" horiz-adv-x="489" 
d="M232 -541c-88 0 -152 58 -183 133l91 62c12 -48 40 -81 86 -81c54 0 76 44 76 86c0 76 -69 123 -187 171l88 201l119 -4l-74 -145c103 -50 171 -113 171 -217c0 -109 -73 -206 -187 -206z" />
    <glyph glyph-name="circumflex" unicode="&#x2c6;" horiz-adv-x="699" 
d="M43 1328l199 278h215l199 -278h-154l-153 170l-153 -170h-153z" />
    <glyph glyph-name="dieresis" unicode="&#xa8;" horiz-adv-x="755" 
d="M134 1378v228h172v-228h-172zM451 1378v228h170v-228h-170z" />
    <glyph glyph-name="dotaccent" unicode="&#x2d9;" horiz-adv-x="463" 
d="M134 1378v228h195v-228h-195z" />
    <glyph glyph-name="grave" unicode="`" horiz-adv-x="492" 
d="M293 1330l-268 276h224l200 -276h-156z" />
    <glyph glyph-name="hungarumlaut" unicode="&#x2dd;" horiz-adv-x="800" 
d="M45 1330l190 276h196l-230 -276h-156zM369 1330l189 276h215l-251 -276h-153z" />
    <glyph glyph-name="macron" unicode="&#xaf;" horiz-adv-x="763" 
d="M130 1350v126h503v-126h-503z" />
    <glyph glyph-name="ogonek" unicode="&#x2db;" horiz-adv-x="492" 
d="M277 -512c-107 0 -197 88 -197 230c0 118 77 224 158 296l108 -14c-95 -81 -150 -165 -150 -258c0 -89 39 -131 85 -131c34 0 74 24 102 75l86 -69c-39 -77 -100 -129 -192 -129z" />
    <glyph glyph-name="ring" unicode="&#x2da;" horiz-adv-x="603" 
d="M302 1274c-129 0 -221 97 -221 230c0 131 92 226 221 226c127 0 219 -95 219 -226c0 -133 -92 -230 -219 -230zM302 1380c69 0 116 51 116 122s-47 123 -116 123s-117 -52 -117 -123s48 -122 117 -122z" />
    <glyph glyph-name="tilde" unicode="&#x2dc;" horiz-adv-x="852" 
d="M569 1323c-146 0 -182 162 -274 162c-55 0 -84 -67 -82 -144h-117c0 159 60 266 181 266c151 0 184 -168 280 -168c58 0 82 66 82 167h118c0 -189 -72 -283 -188 -283z" />
    <glyph glyph-name="uni0337.case" 
d="M-755 153v185l711 632v-193z" />
    <glyph glyph-name="uni0338.case" 
d="M-1074 68l-99 82l1102 1371l100 -79z" />
    <glyph glyph-name="commaturnedabove" horiz-adv-x="512" 
d="M70 1308l219 306h112l-117 -306h-214z" />
    <glyph glyph-name="softdash" horiz-adv-x="1024" 
d="M193 510v145h639v-145h-639z" />
    <glyph glyph-name="HankenDesign" horiz-adv-x="1812" 
d="M906 -70c-487 0 -880 393 -880 880c0 486 393 880 880 880c486 0 880 -394 880 -880c0 -487 -394 -880 -880 -880zM906 12c442 0 798 356 798 798s-356 798 -798 798s-798 -356 -798 -798s356 -798 798 -798zM447 465c-21 0 -39 17 -39 40v610c0 23 18 42 39 42
c24 0 42 -19 42 -42v-610c0 -23 -18 -40 -42 -40zM906 465c-23 0 -40 17 -40 40v610c0 23 17 42 40 42s39 -19 39 -42v-610c0 -23 -16 -40 -39 -40zM1362 465c-9 0 -19 3 -26 12l-307 305c-7 8 -10 19 -10 28c0 12 3 21 10 28l307 305c7 9 17 14 26 14c21 0 42 -21 42 -44
c0 -8 -2 -17 -12 -26l-277 -277l277 -277c10 -9 12 -19 12 -27c0 -22 -21 -41 -42 -41zM601 770c-23 0 -40 17 -40 40s17 39 40 39h151c24 0 42 -16 42 -39s-18 -40 -42 -40h-151z" />
    </font>
</defs>
</svg>
